<svg width="25" height="25" viewBox="0 0 25 25" fill="none" xmlns="http://www.w3.org/2000/svg">
<path d="M12.826 12.4774C12.8673 12.4624 12.9112 12.4511 12.955 12.4386C12.8439 12.1924 12.7274 11.9486 12.6056 11.7074C10.2517 12.4048 7.99798 12.4111 7.59606 12.4048C7.5923 12.4361 7.5923 12.4687 7.5923 12.5C7.5923 13.6832 8.01801 14.8201 8.7918 15.7128C9.04973 15.2971 10.417 13.2575 12.826 12.4774ZM9.52427 16.3977C10.2053 16.9196 11.0114 17.2535 11.862 17.366C12.7126 17.4785 13.5778 17.3657 14.3711 17.0388C14.1411 15.7902 13.7966 14.5655 13.3419 13.3802C10.6862 14.3193 9.68328 16.0872 9.52427 16.3977V16.3977ZM15.6995 8.77754C15.1208 8.28041 14.4342 7.92505 13.6941 7.73965C12.954 7.55426 12.1809 7.54393 11.4362 7.70951C12.0896 8.59729 12.684 9.5271 13.2154 10.4929C14.8218 9.87561 15.548 8.98538 15.6995 8.77754V8.77754ZM12.1311 10.8272C11.5914 9.88087 11 8.96504 10.3594 8.08388C9.69808 8.40611 9.11724 8.87224 8.65945 9.4481C8.20167 10.024 7.87854 10.695 7.71375 11.4119H7.73504C8.24338 11.4119 10.0501 11.3706 12.1311 10.8272ZM14.3961 13.121C14.9783 14.74 15.2463 16.0847 15.3227 16.5154C16.3897 15.7631 17.1144 14.6178 17.3373 13.3314C16.6889 13.1472 16.018 13.0541 15.3439 13.0547C15.0209 13.0547 14.7016 13.0772 14.3961 13.121V13.121ZM12.5005 0.47998C5.86192 0.47998 0.480469 5.86143 0.480469 12.5C0.480469 19.1385 5.86192 24.52 12.5005 24.52C19.139 24.52 24.5205 19.1385 24.5205 12.5C24.5205 5.86143 19.139 0.47998 12.5005 0.47998ZM12.5005 18.381C10.9409 18.3797 9.44555 17.7597 8.34253 16.6572C7.23951 15.5546 6.61892 14.0596 6.61693 12.5C6.61826 10.94 7.23855 9.44424 8.34164 8.34115C9.44473 7.23806 10.9405 6.61777 12.5005 6.61644C14.0602 6.61843 15.5554 7.23898 16.6581 8.34196C17.7609 9.44494 18.3811 10.9403 18.3828 12.5C18.3811 14.0594 17.7608 15.5545 16.658 16.6571C15.5551 17.7597 14.0599 18.3797 12.5005 18.381ZM13.6549 11.3406C13.7638 11.5659 13.8652 11.7875 13.9579 12.0054L14.0468 12.2183C14.3936 12.1769 14.7642 12.1569 15.1511 12.1569C15.9079 12.1584 16.6628 12.2305 17.4061 12.3723C17.3775 11.3058 17.0032 10.2776 16.3394 9.44239C16.139 9.70032 15.3152 10.6481 13.6549 11.3406V11.3406Z" fill="#F1F6FA"/>
</svg>
