<svg width="36" height="48" viewBox="0 0 36 48" fill="none" xmlns="http://www.w3.org/2000/svg">
<path d="M13.5006 6.1871e-07C12.5696 -0.00048744 11.6614 0.287783 10.9011 0.825085C10.1408 1.36239 9.56588 2.12227 9.25555 3H4.50055C3.30708 3 2.16248 3.47411 1.31857 4.31802C0.474655 5.16193 0.000549316 6.30653 0.000549316 7.5V43.5C0.000549316 44.6935 0.474655 45.8381 1.31857 46.682C2.16248 47.5259 3.30708 48 4.50055 48H31.5006C32.694 48 33.8386 47.5259 34.6825 46.682C35.5264 45.8381 36.0006 44.6935 36.0006 43.5V7.5C36.0006 6.30653 35.5264 5.16193 34.6825 4.31802C33.8386 3.47411 32.694 3 31.5006 3H26.7456C26.4352 2.12227 25.8603 1.36239 25.1 0.825085C24.3397 0.287783 23.4315 -0.00048744 22.5006 6.1871e-07H13.5006ZM12.0006 4.5C12.0006 4.10218 12.1586 3.72065 12.4399 3.43934C12.7212 3.15804 13.1027 3 13.5006 3H22.5006C22.8984 3 23.2799 3.15804 23.5612 3.43934C23.8425 3.72065 24.0006 4.10218 24.0006 4.5C24.0006 4.89783 23.8425 5.27936 23.5612 5.56066C23.2799 5.84196 22.8984 6 22.5006 6H13.5006C13.1027 6 12.7212 5.84196 12.4399 5.56066C12.1586 5.27936 12.0006 4.89783 12.0006 4.5ZM27.0006 30V37.5C27.0006 37.8978 26.8425 38.2794 26.5612 38.5607C26.2799 38.842 25.8984 39 25.5006 39C25.1027 39 24.7212 38.842 24.4399 38.5607C24.1586 38.2794 24.0006 37.8978 24.0006 37.5V30C24.0006 29.6022 24.1586 29.2206 24.4399 28.9393C24.7212 28.658 25.1027 28.5 25.5006 28.5C25.8984 28.5 26.2799 28.658 26.5612 28.9393C26.8425 29.2206 27.0006 29.6022 27.0006 30ZM18.0006 21C18.3984 21 18.7799 21.158 19.0612 21.4393C19.3425 21.7206 19.5006 22.1022 19.5006 22.5V37.5C19.5006 37.8978 19.3425 38.2794 19.0612 38.5607C18.7799 38.842 18.3984 39 18.0006 39C17.6027 39 17.2212 38.842 16.9399 38.5607C16.6586 38.2794 16.5006 37.8978 16.5006 37.5V22.5C16.5006 22.1022 16.6586 21.7206 16.9399 21.4393C17.2212 21.158 17.6027 21 18.0006 21ZM12.0006 16.5V37.5C12.0006 37.8978 11.8425 38.2794 11.5612 38.5607C11.2799 38.842 10.8984 39 10.5006 39C10.1027 39 9.7212 38.842 9.43989 38.5607C9.15859 38.2794 9.00055 37.8978 9.00055 37.5V16.5C9.00055 16.1022 9.15859 15.7206 9.43989 15.4393C9.7212 15.158 10.1027 15 10.5006 15C10.8984 15 11.2799 15.158 11.5612 15.4393C11.8425 15.7206 12.0006 16.1022 12.0006 16.5Z" fill="#185CFF"/>
</svg>
