<svg width="36" height="48" viewBox="0 0 36 48" fill="none" xmlns="http://www.w3.org/2000/svg">
<path d="M3.00055 0C2.60272 0 2.22119 0.158036 1.93989 0.43934C1.65858 0.720645 1.50055 1.10218 1.50055 1.5C1.50055 1.89782 1.65858 2.27936 1.93989 2.56066C2.22119 2.84196 2.60272 3 3.00055 3H6.00055V6H4.50055C3.30708 6 2.16248 6.4741 1.31857 7.31802C0.474655 8.16193 0.000549316 9.30653 0.000549316 10.5V24H15.0006V10.5C15.0006 9.30653 14.5264 8.16193 13.6825 7.31802C12.8386 6.4741 11.694 6 10.5006 6H9.00055V3H12.0006C12.3984 3 12.7799 2.84196 13.0612 2.56066C13.3425 2.27936 13.5006 1.89782 13.5006 1.5C13.5006 1.10218 13.3425 0.720645 13.0612 0.43934C12.7799 0.158036 12.3984 0 12.0006 0H3.00055ZM24.0006 6C23.6027 6 23.2212 6.15804 22.9399 6.43934C22.6586 6.72064 22.5006 7.10217 22.5006 7.5C22.5006 7.89782 22.6586 8.27936 22.9399 8.56066C23.2212 8.84196 23.6027 9 24.0006 9H27.0006V12H25.5006C24.3071 12 23.1625 12.4741 22.3186 13.318C21.4747 14.1619 21.0006 15.3065 21.0006 16.5V21H36.0006V16.5C36.0006 15.3065 35.5264 14.1619 34.6825 13.318C33.8386 12.4741 32.694 12 31.5006 12H30.0006V9H33.0006C33.3984 9 33.7799 8.84196 34.0612 8.56066C34.3425 8.27936 34.5006 7.89782 34.5006 7.5C34.5006 7.10217 34.3425 6.72064 34.0612 6.43934C33.7799 6.15804 33.3984 6 33.0006 6H24.0006ZM1.50055 40.5C1.50055 40.8978 1.65858 41.2794 1.93989 41.5607C2.22119 41.842 2.60272 42 3.00055 42H12.0006C12.3984 42 12.7799 41.842 13.0612 41.5607C13.3425 41.2794 13.5006 40.8978 13.5006 40.5C13.5006 40.1022 13.3425 39.7206 13.0612 39.4393C12.7799 39.158 12.3984 39 12.0006 39H9.00055V36H10.5006C11.694 36 12.8386 35.5259 13.6825 34.682C14.5264 33.8381 15.0006 32.6935 15.0006 31.5V27H0.000549316V31.5C0.000549316 32.6935 0.474655 33.8381 1.31857 34.682C2.16248 35.5259 3.30708 36 4.50055 36H6.00055V39H3.00055C2.60272 39 2.22119 39.158 1.93989 39.4393C1.65858 39.7206 1.50055 40.1022 1.50055 40.5ZM24.0006 48C23.6027 48 23.2212 47.842 22.9399 47.5607C22.6586 47.2794 22.5006 46.8978 22.5006 46.5C22.5006 46.1022 22.6586 45.7206 22.9399 45.4393C23.2212 45.158 23.6027 45 24.0006 45H27.0006V42H25.5006C24.3071 42 23.1625 41.5259 22.3186 40.682C21.4747 39.8381 21.0006 38.6935 21.0006 37.5V24H36.0006V37.5C36.0006 38.6935 35.5264 39.8381 34.6825 40.682C33.8386 41.5259 32.694 42 31.5006 42H30.0006V45H33.0006C33.3984 45 33.7799 45.158 34.0612 45.4393C34.3425 45.7206 34.5006 46.1022 34.5006 46.5C34.5006 46.8978 34.3425 47.2794 34.0612 47.5607C33.7799 47.842 33.3984 48 33.0006 48H24.0006Z" fill="#185CFF"/>
</svg>
