<svg width="48" height="48" viewBox="0 0 48 48" fill="none" xmlns="http://www.w3.org/2000/svg">
<path d="M7.5011 42H21.0011V36C21.0011 34.9468 21.2784 33.9121 21.805 33.0001C22.3316 32.088 23.0891 31.3306 24.0012 30.804C24.9133 30.2774 25.9479 30.0001 27.0011 30.0002C28.0543 30.0002 29.089 30.2774 30.0011 30.804V24C30.0011 22.4087 30.6332 20.8826 31.7585 19.7574C32.8837 18.6321 34.4098 18 36.0011 18C37.5924 18 39.1185 18.6321 40.2437 19.7574C41.369 20.8826 42.0011 22.4087 42.0011 24V12H0.00109863V34.5C0.00109863 36.4891 0.791275 38.3968 2.1978 39.8033C3.60432 41.2098 5.51197 42 7.5011 42ZM34.5011 0C36.4902 0 38.3979 0.790176 39.8044 2.1967C41.2109 3.60322 42.0011 5.51088 42.0011 7.5V9H0.00109863V7.5C0.00109863 5.51088 0.791275 3.60322 2.1978 2.1967C3.60432 0.790176 5.51197 0 7.5011 0H34.5011ZM36.0011 21C35.2054 21 34.4424 21.3161 33.8798 21.8787C33.3172 22.4413 33.0011 23.2044 33.0011 24V45C33.0011 45.7957 33.3172 46.5587 33.8798 47.1213C34.4424 47.6839 35.2054 48 36.0011 48C36.7967 48 37.5598 47.6839 38.1224 47.1213C38.685 46.5587 39.0011 45.7957 39.0011 45V24C39.0011 23.2044 38.685 22.4413 38.1224 21.8787C37.5598 21.3161 36.7967 21 36.0011 21ZM27.0011 33C26.2055 33 25.4424 33.3161 24.8798 33.8787C24.3172 34.4413 24.0011 35.2043 24.0011 36V45C24.0011 45.7957 24.3172 46.5587 24.8798 47.1213C25.4424 47.6839 26.2055 48 27.0011 48C27.7967 48 28.5598 47.6839 29.1224 47.1213C29.685 46.5587 30.0011 45.7957 30.0011 45V36C30.0011 35.2043 29.685 34.4413 29.1224 33.8787C28.5598 33.3161 27.7967 33 27.0011 33ZM42.0011 30C42.0011 29.2044 42.3172 28.4413 42.8798 27.8787C43.4424 27.3161 44.2054 27 45.0011 27C45.7967 27 46.5598 27.3161 47.1224 27.8787C47.685 28.4413 48.0011 29.2044 48.0011 30V45C48.0011 45.7957 47.685 46.5587 47.1224 47.1213C46.5598 47.6839 45.7967 48 45.0011 48C44.2054 48 43.4424 47.6839 42.8798 47.1213C42.3172 46.5587 42.0011 45.7957 42.0011 45V30Z" fill="#185CFF"/>
</svg>
