<svg width="52" height="52" viewBox="0 0 52 52" fill="none" xmlns="http://www.w3.org/2000/svg">
<path d="M21.625 6.625C22.1223 6.625 22.5992 6.82254 22.9508 7.17417C23.3025 7.52581 23.5 8.00272 23.5 8.5V28.5H43.5C43.9531 28.5 44.3909 28.6641 44.7323 28.9619C45.0738 29.2597 45.2959 29.6711 45.3575 30.12L45.375 30.375C45.375 42.8 35.3 51.625 22.875 51.625C16.9076 51.625 11.1847 49.2545 6.9651 45.0349C2.74553 40.8153 0.375 35.0924 0.375 29.125C0.375 16.7 9.2 6.625 21.625 6.625ZM29.125 0.375C35.0924 0.375 40.8153 2.74553 45.0349 6.9651C49.2545 11.1847 51.625 16.9076 51.625 22.875C51.625 23.3723 51.4275 23.8492 51.0758 24.2008C50.7242 24.5525 50.2473 24.75 49.75 24.75H29.125C28.6277 24.75 28.1508 24.5525 27.7992 24.2008C27.4475 23.8492 27.25 23.3723 27.25 22.875V2.25C27.25 1.75272 27.4475 1.27581 27.7992 0.924175C28.1508 0.572544 28.6277 0.375 29.125 0.375Z" fill="#185CFF"/>
</svg>
