<svg width="36" height="48" viewBox="0 0 36 48" fill="none" xmlns="http://www.w3.org/2000/svg">
<path d="M0.000549316 6C0.000549316 4.4087 0.63269 2.88258 1.75791 1.75736C2.88313 0.632141 4.40925 0 6.00055 0H30.0006C31.5919 0 33.118 0.632141 34.2432 1.75736C35.3684 2.88258 36.0006 4.4087 36.0006 6V39C36.0006 39.7956 35.6845 40.5587 35.1219 41.1213C34.5593 41.6839 33.7962 42 33.0006 42H3.00055C3.00055 42.7956 3.31662 43.5587 3.87923 44.1213C4.44184 44.6839 5.2049 45 6.00055 45H34.5006C34.8984 45 35.2799 45.158 35.5612 45.4393C35.8425 45.7206 36.0006 46.1022 36.0006 46.5C36.0006 46.8978 35.8425 47.2794 35.5612 47.5607C35.2799 47.842 34.8984 48 34.5006 48H6.00055C4.40925 48 2.88313 47.3679 1.75791 46.2426C0.63269 45.1174 0.000549316 43.5913 0.000549316 42V6ZM13.4495 13.035C12.3785 13.656 12.0006 14.361 12.0006 15C12.0006 15.639 12.3785 16.344 13.4495 16.965C14.5236 17.589 16.1226 18 18.0006 18C19.8786 18 21.4776 17.589 22.5516 16.965C23.6226 16.344 24.0006 15.639 24.0006 15C24.0006 14.361 23.6226 13.656 22.5516 13.035C21.4776 12.411 19.8786 12 18.0006 12C16.1226 12 14.5236 12.411 13.4495 13.035ZM11.9436 10.44C10.3026 11.394 9.00055 12.939 9.00055 15V27C9.00055 28.881 10.3566 30.405 11.9045 31.368C13.5185 32.37 15.6726 33 18.0006 33C20.3286 33 22.4825 32.37 24.0965 31.368C25.6446 30.408 27.0006 28.881 27.0006 27V15C27.0006 12.939 25.6986 11.394 24.0576 10.44C22.4166 9.489 20.2656 9 18.0006 9C15.7356 9 13.5845 9.489 11.9436 10.44ZM24.0006 27V19.59C22.3686 20.52 20.2386 21 18.0006 21C15.7596 21 13.6326 20.52 12.0006 19.59V27C12.0006 27.369 12.3216 28.095 13.4886 28.821C14.5896 29.505 16.1886 30 18.0006 30C19.8126 30 21.4116 29.505 22.5126 28.821C23.6796 28.095 24.0006 27.369 24.0006 27Z" fill="#185CFF"/>
</svg>
