<svg width="48" height="54" viewBox="0 0 48 54" fill="none" xmlns="http://www.w3.org/2000/svg">
<path d="M47.9989 9C47.9989 13.971 39.9409 18 29.9989 18C20.0569 18 11.9989 13.971 11.9989 9C11.9989 4.029 20.0569 0 29.9989 0C39.9409 0 47.9989 4.029 47.9989 9ZM47.9989 15.36C46.8499 16.446 45.4789 17.343 44.0689 18.048C40.3129 19.926 35.3329 21 29.9989 21C28.1299 21 26.3089 20.868 24.5659 20.616C27.3709 22.2 29.7379 24.639 29.9779 27.942L30.0079 27.918L29.9989 34.659V46.5C29.9989 47.022 29.9449 47.52 29.8459 48H29.9989C39.9409 48 47.9989 43.971 47.9989 39V15.36ZM15.9289 18.048L16.0789 18.123C14.7228 17.994 13.359 17.9669 11.9989 18.042V15.36C13.1479 16.446 14.5189 17.343 15.9289 18.048ZM20.9989 22.26C19.908 21.8596 18.7835 21.5574 17.6389 21.357C16.2721 21.1164 14.8867 20.9969 13.4989 21C6.0439 21 -0.00109863 24.36 -0.00109863 28.5C-0.00109863 32.64 6.0439 36 13.4989 36C20.9539 36 26.9989 32.64 26.9989 28.5C26.9989 25.899 24.6169 23.61 20.9989 22.26ZM24.5029 36.42C21.5329 38.07 17.6389 38.997 13.4989 38.997C9.3589 38.997 5.4619 38.07 2.4949 36.423C1.59971 35.9311 0.762487 35.3404 -0.00109863 34.662V46.497C-0.00109863 50.64 6.0439 54 13.4989 54C20.9539 54 26.9989 50.64 26.9989 46.5L27.0019 34.662C26.2379 35.343 25.3996 35.9358 24.5029 36.429V36.42Z" fill="#185CFF"/>
</svg>
