<svg width="37" height="37" viewBox="0 0 37 37" fill="none" xmlns="http://www.w3.org/2000/svg">
<path d="M2.74934 1.60028C2.74605 1.30191 2.62438 1.01707 2.41108 0.80841C2.19778 0.599752 1.91033 0.484373 1.61196 0.487655C1.31359 0.490937 1.02875 0.612611 0.82009 0.82591C0.611433 1.03921 0.496054 1.32666 0.499336 1.62503V35.375C0.499336 35.6734 0.617862 35.9595 0.828841 36.1705C1.03982 36.3815 1.32597 36.5 1.62434 36.5H35.3743C35.6727 36.5 35.9589 36.3815 36.1698 36.1705C36.3808 35.9595 36.4993 35.6734 36.4993 35.375C36.4993 35.0767 36.3808 34.7905 36.1698 34.5795C35.9589 34.3686 35.6727 34.25 35.3743 34.25H2.74934V1.60028ZM31.9993 32V8.37503C31.999 8.16334 31.939 7.95603 31.8262 7.77692C31.7133 7.59782 31.5522 7.45419 31.3614 7.36253C31.1706 7.27088 30.9578 7.23493 30.7474 7.25881C30.5371 7.28269 30.3378 7.36544 30.1723 7.49753L19.5186 16.0183L12.3073 11.8985C12.1544 11.8113 11.9831 11.7611 11.8072 11.7521C11.6314 11.7431 11.4559 11.7756 11.2948 11.8468L4.99934 14.6435V32H31.9993Z" fill="#185CFF"/>
</svg>
