<svg width="24" height="24" viewBox="0 0 24 24" fill="current" xmlns="http://www.w3.org/2000/svg">
<path d="M10.6875 7.776C10.5164 7.67723 10.3224 7.62525 10.1248 7.62528C9.92728 7.62531 9.73323 7.67736 9.56219 7.77618C9.39114 7.87501 9.24914 8.01713 9.15045 8.18825C9.05176 8.35937 8.99987 8.55346 9 8.751V15.2505C8.99987 15.448 9.05176 15.6421 9.15045 15.8133C9.24914 15.9844 9.39114 16.1265 9.56219 16.2253C9.73323 16.3241 9.92728 16.3762 10.1248 16.3762C10.3224 16.3763 10.5164 16.3243 10.6875 16.2255L16.875 12.6495C16.989 12.5837 17.0837 12.489 17.1495 12.375C17.2153 12.261 17.25 12.1316 17.25 12C17.25 11.8684 17.2153 11.739 17.1495 11.625C17.0837 11.511 16.989 11.4163 16.875 11.3505L10.6875 7.776ZM0 12C0 8.8174 1.26428 5.76516 3.51472 3.51472C5.76516 1.26428 8.8174 0 12 0C15.1826 0 18.2348 1.26428 20.4853 3.51472C22.7357 5.76516 24 8.8174 24 12C24 15.1826 22.7357 18.2348 20.4853 20.4853C18.2348 22.7357 15.1826 24 12 24C8.8174 24 5.76516 22.7357 3.51472 20.4853C1.26428 18.2348 0 15.1826 0 12ZM12 1.5C10.6211 1.5 9.25574 1.77159 7.98182 2.29926C6.70791 2.82694 5.55039 3.60036 4.57538 4.57538C3.60036 5.55039 2.82694 6.70791 2.29926 7.98182C1.77159 9.25574 1.5 10.6211 1.5 12C1.5 13.3789 1.77159 14.7443 2.29926 16.0182C2.82694 17.2921 3.60036 18.4496 4.57538 19.4246C5.55039 20.3996 6.70791 21.1731 7.98182 21.7007C9.25574 22.2284 10.6211 22.5 12 22.5C14.7848 22.5 17.4555 21.3938 19.4246 19.4246C21.3938 17.4555 22.5 14.7848 22.5 12C22.5 9.21523 21.3938 6.54451 19.4246 4.57538C17.4555 2.60625 14.7848 1.5 12 1.5Z"/>
</svg>
