<svg width="86" height="80" viewBox="0 0 86 80" fill="none" xmlns="http://www.w3.org/2000/svg">
<path d="M79.335 40.1991C79.335 45.5318 75.798 50.8616 68.7623 54.9308C54.6643 63.0722 31.8077 63.0737 17.7097 54.9308C10.1861 50.5844 6.71834 44.7976 7.22679 39.1066C7.18227 39.3115 7.14881 39.5187 7.12658 39.7273C6.44865 47.1566 8.73445 52.2593 17.7097 57.4373C31.8077 65.5801 54.6643 65.5787 68.7623 57.4373C76.8341 52.7739 79.5001 46.8602 79.335 40.1991Z" fill="url(#paint0_linear_1145_244)"/>
<g filter="url(#filter0_di_1145_244)">
<path d="M43.2371 61.0376C63.1745 61.0376 79.3369 51.7026 79.3369 40.1873C79.3369 28.6719 63.1745 19.3369 43.2371 19.3369C23.2998 19.3369 7.13733 28.6719 7.13733 40.1873C7.13733 51.7026 23.2998 61.0376 43.2371 61.0376Z" fill="url(#paint1_radial_1145_244)"/>
<path d="M79.2714 40.1873C79.2714 45.9116 75.2536 51.1065 68.7308 54.8739C62.2096 58.6404 53.1964 60.9721 43.2371 60.9721C33.2779 60.9721 24.2646 58.6404 17.7435 54.8739C11.2206 51.1065 7.20288 45.9116 7.20288 40.1873C7.20288 34.4629 11.2206 29.2681 17.7435 25.5006C24.2646 21.7342 33.2779 19.4025 43.2371 19.4025C53.1964 19.4025 62.2096 21.7342 68.7308 25.5006C75.2536 29.2681 79.2714 34.4629 79.2714 40.1873Z" stroke="url(#paint2_linear_1145_244)" stroke-width="0.131111" stroke-linejoin="round"/>
</g>
<g filter="url(#filter1_b_1145_244)">
<path d="M18.0492 22.4108C19.1043 21.8631 20.2704 21.5777 21.4531 21.5777C22.6359 21.5777 23.802 21.8631 24.857 22.4108C25.1754 22.5993 25.4874 22.8547 25.7313 23.1367C26.0674 22.7899 26.2401 22.3115 26.2614 21.8232C26.2206 21.3899 26.0686 20.9755 25.8209 20.6219C25.5732 20.2684 25.2386 19.9883 24.851 19.8102C23.7962 19.2616 22.63 18.9756 21.4471 18.9756C20.2643 18.9756 19.098 19.2616 18.0433 19.8102C17.6559 19.9884 17.3215 20.2685 17.074 20.6221C16.8266 20.9756 16.5867 21.2673 16.6105 21.8035C16.6323 22.2941 16.8227 22.8093 17.1603 23.1579C17.4067 22.8739 17.7284 22.6014 18.0492 22.4108Z" fill="url(#paint3_linear_1145_244)"/>
<path d="M64.7683 44.6097C64.7278 45.0428 64.5598 45.4163 64.3123 45.7698C64.0649 46.1234 63.7522 46.4127 63.3649 46.5909C62.3182 47.1611 61.1814 47.437 59.9962 47.4142H53.7634C52.5781 47.4374 51.3759 47.1932 50.3293 46.6226L31.6996 35.6052C27.7789 36.2805 23.7709 36.2186 19.8718 35.4226C16.4451 34.8077 13.2145 33.3522 10.4559 31.1804C9.44407 30.426 8.61019 29.4488 8.01555 28.3207C7.42091 27.1925 7.08064 25.9421 7.01978 24.6614V24.6721C7.01978 24.6721 7.03924 26.4917 7.01978 27.0824C7.05085 28.3957 7.37785 29.6838 7.97521 30.8461C8.57258 32.0083 9.42414 33.0133 10.4633 33.7825C13.2204 35.9517 16.4481 37.406 19.8718 38.0216C23.771 38.8168 27.7788 38.8786 31.6996 38.2042L50.3263 49.2247C51.373 49.7949 52.5443 50.0821 53.7295 50.0593H59.9533C61.1385 50.0823 62.3099 49.7951 63.3565 49.2247C63.744 49.0466 64.0787 48.7665 64.3264 48.413C64.5741 48.0594 64.7261 47.645 64.7668 47.2118" fill="url(#paint4_linear_1145_244)"/>
</g>
<g filter="url(#filter2_bi_1145_244)">
<path d="M52.7379 31.7943H55.1454C55.7378 31.7828 56.3232 31.9265 56.8462 32.2116C57.0403 32.3002 57.2079 32.4401 57.3319 32.617C57.4558 32.7939 57.5316 33.0013 57.5514 33.2181V36.0657H59.9589C61.144 36.0424 62.3153 36.3291 63.3621 36.8988C63.7498 37.077 64.0846 37.3573 64.3323 37.7111C64.58 38.065 64.7319 38.4797 64.7724 38.9132V44.6084C64.7319 45.0415 64.5802 45.4559 64.3328 45.8094C64.0853 46.163 63.7509 46.4431 63.3636 46.6213C62.3171 47.1922 61.1457 47.4795 59.9604 47.4559H53.7351C52.5498 47.4791 51.3785 47.1919 50.3319 46.6213L31.7022 35.6054C27.7815 36.2807 23.7735 36.2188 19.8744 35.4228C16.4477 34.8079 13.2171 33.3524 10.4585 31.1806C9.41876 30.412 8.56683 29.4071 7.96941 28.2447C7.37198 27.0823 7.04528 25.7939 7.01489 24.4806C7.13042 23.1531 7.53465 21.869 8.19792 20.7226C8.86118 19.5761 9.76661 18.5965 10.8477 17.8557C13.714 15.751 17.0221 14.3648 20.5062 13.8083C24.4199 13.0946 28.4276 13.1154 32.3341 13.8697C35.7902 14.4541 39.0606 15.8742 41.8742 18.0122C42.9342 18.7671 43.8126 19.7594 44.4427 20.9139C45.0728 22.0684 45.4381 23.3547 45.5109 24.6754V27.526H50.3244C50.9173 27.5147 51.5031 27.6583 52.0268 27.9434C52.2206 28.0322 52.3879 28.1722 52.5115 28.349C52.6352 28.5259 52.7107 28.7332 52.7304 28.9498V31.7943H52.7379ZM26.2659 21.8217C26.2251 21.3885 26.0732 20.974 25.8254 20.6205C25.5777 20.2669 25.2431 19.9869 24.8555 19.8088C23.8008 19.2601 22.6345 18.9742 21.4517 18.9742C20.2688 18.9742 19.1026 19.2601 18.0478 19.8088C17.6604 19.987 17.326 20.2671 17.0785 20.6206C16.8311 20.9742 16.6015 21.42 16.6389 21.8217C16.6793 22.255 16.8309 22.6697 17.0784 23.0235C17.3258 23.3774 17.6603 23.6577 18.0478 23.8362C19.1028 24.3839 20.2689 24.6693 21.4517 24.6693C22.6344 24.6693 23.8005 24.3839 24.8555 23.8362C25.243 23.6576 25.5775 23.3772 25.8252 23.0234C26.0729 22.6696 26.2249 22.2551 26.2659 21.8217Z" fill="url(#paint5_linear_1145_244)" fill-opacity="0.35"/>
<path d="M55.1454 31.8599L55.1467 31.8599C55.7276 31.8486 56.3018 31.9895 56.8149 32.2692L56.8148 32.2693L56.819 32.2713C57.0023 32.3549 57.1609 32.4872 57.2782 32.6546C57.3949 32.8212 57.4666 33.0167 57.4859 33.2211V36.0657V36.1312H57.5514L59.9589 36.1312L59.9602 36.1312C61.1338 36.1081 62.2939 36.3921 63.3307 36.9563L63.3307 36.9565L63.3347 36.9583C63.7117 37.1316 64.0375 37.4043 64.2786 37.7487C64.5192 38.0923 64.667 38.4951 64.7069 38.9163V44.6053C64.667 45.0261 64.5194 45.4285 64.2791 45.7718C64.0382 46.116 63.7128 46.3885 63.3362 46.5617L63.3361 46.5616L63.3322 46.5637C62.2957 47.1292 61.1355 47.4137 59.9617 47.3904H59.9604L53.7351 47.3904L53.7338 47.3904C52.5604 47.4134 51.4006 47.1291 50.3643 46.5643C50.364 46.5641 50.3636 46.5639 50.3633 46.5637L31.7356 35.549L31.7149 35.5367L31.6911 35.5408C27.7784 36.2147 23.7786 36.1529 19.8875 35.3586L19.8859 35.3583C16.4699 34.7453 13.2493 33.2943 10.499 31.1291L10.4974 31.1279C9.46593 30.3653 8.62058 29.3682 8.02771 28.2147C7.43539 27.0623 7.11119 25.7849 7.08051 24.4826C7.19563 23.1659 7.59684 21.8924 8.25466 20.7554C8.91308 19.6173 9.81182 18.645 10.8848 17.9097L10.8848 17.9098L10.8865 17.9085C13.7444 15.81 17.0428 14.4278 20.5165 13.8731L20.5165 13.8731L20.5179 13.8728C24.4237 13.1606 28.4231 13.1813 32.3216 13.9341L32.3216 13.9341L32.3231 13.9343C35.7687 14.517 39.0293 15.9327 41.8346 18.0644L41.8345 18.0644L41.8362 18.0656C42.888 18.8146 43.7597 19.7994 44.3851 20.9453C45.0103 22.0906 45.3729 23.3668 45.4454 24.6772V27.526V27.5916H45.5109L50.3244 27.5916L50.3257 27.5916C50.9071 27.5805 51.4817 27.7213 51.9954 28.0009L51.9953 28.0011L51.9995 28.003C52.1825 28.0868 52.3407 28.2192 52.4578 28.3866C52.5743 28.5532 52.6458 28.7485 52.6649 28.9528V31.7943V31.8599H52.7304H52.7379L55.1454 31.8599ZM26.3312 21.8279L26.3323 21.828L26.3312 21.8156C26.2893 21.3711 26.1334 20.9458 25.8791 20.5829C25.6251 20.2204 25.282 19.9329 24.8844 19.7499C23.8207 19.1969 22.6446 18.9086 21.4517 18.9086C20.2587 18.9086 19.0826 19.1969 18.0189 19.7499C17.6215 19.933 17.2786 20.2205 17.0248 20.583C16.7764 20.938 16.5338 21.4009 16.5736 21.8278C16.6151 22.2724 16.7706 22.6979 17.0247 23.0611C17.2784 23.4239 17.6214 23.7117 18.0189 23.8951C19.0829 24.4471 20.2589 24.7348 21.4517 24.7348C22.6444 24.7348 23.8204 24.4471 24.8844 23.8951C25.2819 23.7115 25.625 23.4237 25.8789 23.061C26.1332 22.6979 26.2891 22.2724 26.3312 21.8279Z" stroke="url(#paint6_linear_1145_244)" stroke-width="0.131111"/>
</g>
<defs>
<filter id="filter0_di_1145_244" x="0.581774" y="18.0258" width="85.3107" height="54.8119" filterUnits="userSpaceOnUse" color-interpolation-filters="sRGB">
<feFlood flood-opacity="0" result="BackgroundImageFix"/>
<feColorMatrix in="SourceAlpha" type="matrix" values="0 0 0 0 0 0 0 0 0 0 0 0 0 0 0 0 0 0 127 0" result="hardAlpha"/>
<feOffset dy="5.24444"/>
<feGaussianBlur stdDeviation="3.27778"/>
<feComposite in2="hardAlpha" operator="out"/>
<feColorMatrix type="matrix" values="0 0 0 0 0.0980392 0 0 0 0 0.211765 0 0 0 0 0.482353 0 0 0 0.5 0"/>
<feBlend mode="normal" in2="BackgroundImageFix" result="effect1_dropShadow_1145_244"/>
<feBlend mode="normal" in="SourceGraphic" in2="effect1_dropShadow_1145_244" result="shape"/>
<feColorMatrix in="SourceAlpha" type="matrix" values="0 0 0 0 0 0 0 0 0 0 0 0 0 0 0 0 0 0 127 0" result="hardAlpha"/>
<feOffset/>
<feGaussianBlur stdDeviation="2.62222"/>
<feComposite in2="hardAlpha" operator="arithmetic" k2="-1" k3="1"/>
<feColorMatrix type="matrix" values="0 0 0 0 1 0 0 0 0 1 0 0 0 0 1 0 0 0 0.25 0"/>
<feBlend mode="normal" in2="shape" result="effect2_innerShadow_1145_244"/>
</filter>
<filter id="filter1_b_1145_244" x="5.70866" y="17.6645" width="60.3708" height="33.7072" filterUnits="userSpaceOnUse" color-interpolation-filters="sRGB">
<feFlood flood-opacity="0" result="BackgroundImageFix"/>
<feGaussianBlur in="BackgroundImageFix" stdDeviation="0.655556"/>
<feComposite in2="SourceAlpha" operator="in" result="effect1_backgroundBlur_1145_244"/>
<feBlend mode="normal" in="SourceGraphic" in2="effect1_backgroundBlur_1145_244" result="shape"/>
</filter>
<filter id="filter2_bi_1145_244" x="3.08156" y="9.35475" width="65.6242" height="42.0359" filterUnits="userSpaceOnUse" color-interpolation-filters="sRGB">
<feFlood flood-opacity="0" result="BackgroundImageFix"/>
<feGaussianBlur in="BackgroundImageFix" stdDeviation="1.96667"/>
<feComposite in2="SourceAlpha" operator="in" result="effect1_backgroundBlur_1145_244"/>
<feBlend mode="normal" in="SourceGraphic" in2="effect1_backgroundBlur_1145_244" result="shape"/>
<feColorMatrix in="SourceAlpha" type="matrix" values="0 0 0 0 0 0 0 0 0 0 0 0 0 0 0 0 0 0 127 0" result="hardAlpha"/>
<feOffset/>
<feGaussianBlur stdDeviation="0.983333"/>
<feComposite in2="hardAlpha" operator="arithmetic" k2="-1" k3="1"/>
<feColorMatrix type="matrix" values="0 0 0 0 1 0 0 0 0 1 0 0 0 0 1 0 0 0 0.5 0"/>
<feBlend mode="normal" in2="shape" result="effect2_innerShadow_1145_244"/>
</filter>
<linearGradient id="paint0_linear_1145_244" x1="75.8988" y1="27.311" x2="9.2113" y2="48.7673" gradientUnits="userSpaceOnUse">
<stop stop-color="#00298D"/>
<stop offset="0.189268" stop-color="#2349A7"/>
<stop offset="0.646435" stop-color="#3155AD"/>
<stop offset="1" stop-color="#032C91"/>
</linearGradient>
<radialGradient id="paint1_radial_1145_244" cx="0" cy="0" r="1" gradientUnits="userSpaceOnUse" gradientTransform="translate(43.2371 40.1873) rotate(90) scale(28.6214 49.5543)">
<stop offset="0.0520833" stop-color="#062E8D"/>
<stop offset="1" stop-color="#2968FE"/>
</radialGradient>
<linearGradient id="paint2_linear_1145_244" x1="31.7221" y1="18.1383" x2="51.3231" y2="59.8256" gradientUnits="userSpaceOnUse">
<stop stop-color="white" stop-opacity="0"/>
<stop offset="1" stop-color="white" stop-opacity="0.43"/>
</linearGradient>
<linearGradient id="paint3_linear_1145_244" x1="26.2711" y1="25.0705" x2="21.0178" y2="15.445" gradientUnits="userSpaceOnUse">
<stop stop-color="#E9F7FF"/>
<stop offset="0.579246" stop-color="#D7F0FF" stop-opacity="0.57"/>
<stop offset="0.956471" stop-color="#BDE7FF" stop-opacity="0"/>
</linearGradient>
<linearGradient id="paint4_linear_1145_244" x1="64.8263" y1="61.6759" x2="32.6656" y2="3.62503" gradientUnits="userSpaceOnUse">
<stop stop-color="#E9F7FF"/>
<stop offset="0.579246" stop-color="#D7F0FF" stop-opacity="0.57"/>
<stop offset="0.956471" stop-color="#BDE7FF" stop-opacity="0"/>
</linearGradient>
<linearGradient id="paint5_linear_1145_244" x1="26.3275" y1="9.33484" x2="29.8283" y2="52.3345" gradientUnits="userSpaceOnUse">
<stop offset="0.0952749" stop-color="#2092FB"/>
<stop offset="0.487412" stop-color="#79CFFF"/>
<stop offset="1" stop-color="#79CFFF"/>
</linearGradient>
<linearGradient id="paint6_linear_1145_244" x1="63.2612" y1="52.4482" x2="10.8297" y2="16.8098" gradientUnits="userSpaceOnUse">
<stop stop-color="#E9F7FF"/>
<stop offset="0.923987" stop-color="#BDE7FF" stop-opacity="0"/>
</linearGradient>
</defs>
</svg>
