<svg width="87" height="80" viewBox="0 0 87 80" fill="none" xmlns="http://www.w3.org/2000/svg">
<path d="M79.5641 40.1638C79.5641 45.4965 76.0271 50.8263 68.9914 54.8956C54.8934 63.037 32.0368 63.0384 17.9388 54.8956C10.4152 50.5492 6.94744 44.7623 7.45589 39.0713C7.41136 39.2762 7.37791 39.4834 7.35567 39.692C6.67774 47.1213 8.96355 52.224 17.9388 57.402C32.0368 65.5448 54.8934 65.5434 68.9914 57.402C77.0632 52.7386 79.7292 46.8249 79.5641 40.1638Z" fill="url(#paint0_linear_1145_523)"/>
<g filter="url(#filter0_di_1145_523)">
<path d="M43.4662 61.0024C63.4036 61.0024 79.566 51.6673 79.566 40.152C79.566 28.6367 63.4036 19.3016 43.4662 19.3016C23.5289 19.3016 7.36642 28.6367 7.36642 40.152C7.36642 51.6673 23.5289 61.0024 43.4662 61.0024Z" fill="url(#paint1_radial_1145_523)"/>
<path d="M79.5005 40.152C79.5005 45.8763 75.4827 51.0712 68.9599 54.8387C62.4387 58.6051 53.4255 60.9368 43.4662 60.9368C33.507 60.9368 24.4937 58.6051 17.9726 54.8387C11.4497 51.0712 7.43198 45.8763 7.43198 40.152C7.43198 34.4277 11.4497 29.2328 17.9726 25.4653C24.4937 21.6989 33.507 19.3672 43.4662 19.3672C53.4255 19.3672 62.4387 21.6989 68.9599 25.4653C75.4827 29.2328 79.5005 34.4277 79.5005 40.152Z" stroke="url(#paint2_linear_1145_523)" stroke-width="0.131111" stroke-linejoin="round"/>
</g>
<g style="mix-blend-mode:multiply" filter="url(#filter1_f_1145_523)">
<path fill-rule="evenodd" clip-rule="evenodd" d="M57.9433 41.4581C60.272 41.4003 62.5573 40.8305 64.6283 39.7914C67.1874 38.3524 68.1693 36.6201 68.2434 34.9979C68.3016 36.9446 67.7166 40.5458 64.6283 42.2836C62.557 43.3219 60.2719 43.8917 57.9433 43.9504C57.6686 43.9661 57.3931 43.9474 57.1233 43.8948C56.8787 43.8481 56.6431 43.7641 56.4254 43.6459L47.3443 38.5346L22.2497 24.1747L24.2142 23.3013L47.3431 36.0435L56.4242 41.1547C56.6422 41.2732 56.8782 41.3569 57.1233 41.4025C57.3929 41.4563 57.6686 41.475 57.9433 41.4581ZM67.0096 30.1112C67.0782 29.1978 67.0858 28.281 67.0324 27.3667C67.0324 27.4545 67.021 27.54 67.0085 27.6256C66.8523 28.5489 66.3857 29.3954 65.6822 30.0323C66.0648 30.3422 66.4172 30.6859 66.7348 31.059C66.8718 30.7573 66.9643 30.4382 67.0096 30.1112ZM53.1753 44.5015C53.1766 44.5413 53.1739 44.5811 53.1673 44.6204C52.9974 45.4266 52.6411 46.1844 52.1255 46.8363C51.61 47.4882 50.9487 48.0171 50.192 48.3827C46.9559 50.0133 43.3066 50.7022 39.6797 50.3672C37.3395 50.2423 35.0324 49.7717 32.8372 48.9716C31.4532 49.4117 30.0132 49.663 28.5584 49.7183C25.4426 49.7603 22.3652 49.0443 19.6051 47.6349C17.5759 46.428 15.7329 44.9465 14.1311 43.2348C13.9465 42.9226 13.8213 42.5804 13.7616 42.2248C13.7084 41.8842 13.7405 41.5361 13.8551 41.2103C13.9184 41.0366 14.0022 40.8706 14.1049 40.7158C11.5355 40.0641 10.0097 39.3691 8.66754 38.1921L7.62363 39.1535C9.31884 40.9683 11.3176 42.3851 13.7411 43.0526C13.6674 43.959 13.8022 44.8701 14.1357 45.7193C15.1256 47.2582 18.1271 49.285 19.6097 50.1183C22.329 51.6309 25.4357 52.3538 28.563 52.2017C30.0177 52.1463 31.4576 51.8954 32.8418 51.4562C35.0373 52.255 37.3443 52.7255 39.6843 52.8517C43.3113 53.187 46.9608 52.4976 50.1965 50.8661C50.9536 50.5007 51.6151 49.9719 52.1308 49.32C52.6466 48.668 53.003 47.9101 53.173 47.1038C53.1779 47.0737 53.1806 47.0432 53.181 47.0127C53.1808 46.9888 53.1815 46.8837 53.1826 46.7285C53.1868 46.1319 53.1961 44.796 53.1753 44.5015Z" fill="#083090" fill-opacity="0.4"/>
</g>
<g filter="url(#filter2_b_1145_523)">
<path fill-rule="evenodd" clip-rule="evenodd" d="M57.9426 39.8136C60.2713 39.7558 62.5566 39.186 64.6277 38.1469C67.1867 36.708 68.1686 34.9757 68.2428 33.3534C68.3009 35.3001 67.7159 38.9014 64.6277 40.6392C62.5563 41.6775 60.2712 42.2472 57.9426 42.3059C57.6679 42.3217 57.3924 42.303 57.1226 42.2503C56.878 42.2037 56.6425 42.1197 56.4247 42.0014L47.3436 36.8902L19.0946 21.0008C18.9609 20.9385 18.8429 20.8483 18.7491 20.7365C18.6552 20.6247 18.5879 20.4942 18.5517 20.3541C18.4993 20.0297 18.4765 17.8507 18.4993 17.3629C18.4998 17.3892 18.5018 17.4153 18.5038 17.4413C18.5061 17.4712 18.5084 17.501 18.5084 17.5307C18.5175 17.6418 18.5323 17.7529 18.5517 17.864C18.5879 18.0038 18.6552 18.134 18.7488 18.2456C18.8424 18.3572 18.9601 18.4473 19.0934 18.5096L47.3425 34.399L56.4236 39.5103C56.6415 39.6288 56.8775 39.7124 57.1226 39.758C57.3922 39.8119 57.6679 39.8305 57.9426 39.8136ZM67.0092 28.4667C67.0778 27.5533 67.0854 26.6365 67.032 25.7222C67.032 25.8099 67.0206 25.8955 67.008 25.981C66.8519 26.9043 66.3853 27.7509 65.6817 28.3878C66.0644 28.6976 66.4167 29.0413 66.7343 29.4145C66.8713 29.1128 66.9639 28.7937 67.0092 28.4667ZM6.47535 28.6909C6.75931 29.2461 7.16382 29.7346 7.66084 30.1223C7.26079 30.3766 6.9191 30.7087 6.65728 31.0979C6.20779 29.7449 5.99122 28.3286 6.01637 26.9067C6.03477 27.5268 6.19138 28.1356 6.47535 28.6909ZM53.1691 42.9759C53.1757 42.9366 53.1784 42.8968 53.177 42.857C53.1979 43.1515 53.1885 44.4874 53.1843 45.084C53.1832 45.2392 53.1825 45.3443 53.1827 45.3682C53.1823 45.3987 53.1797 45.4292 53.1748 45.4593C53.0048 46.2656 52.6483 47.0236 52.1326 47.6755C51.6168 48.3274 50.9553 48.8562 50.1983 49.2216C46.9625 50.8532 43.3131 51.5425 39.686 51.2073C37.346 51.081 35.0391 50.6105 32.8436 49.8117C31.4593 50.2509 30.0194 50.5018 28.5647 50.5572C25.4374 50.7093 22.3307 49.9864 19.6114 48.4738C18.1289 47.6405 15.1273 45.6138 14.1374 44.0748C13.8039 43.2256 13.6691 42.3145 13.7429 41.4081C11.3193 40.7406 9.13616 39.4249 7.44095 37.6102C6.68153 36.746 6.27089 35.6421 6.28572 34.5045C6.28686 34.4112 6.27888 33.3189 6.25949 32.5745C6.36688 33.5262 6.77995 34.4206 7.43981 35.1301C9.21975 37.0496 11.5373 38.4196 14.1066 39.0713C14.004 39.2261 13.9201 39.3921 13.8569 39.5658C13.7422 39.8917 13.7101 40.2397 13.7634 40.5803C13.8231 40.9359 13.9482 41.2781 14.1329 41.5903C15.7346 43.302 17.5777 44.7835 19.6068 45.9904C22.3669 47.3998 25.4443 48.1159 28.5602 48.0738C30.015 48.0185 31.4549 47.7672 32.839 47.3271C35.0341 48.1272 37.3413 48.5978 39.6814 48.7227C43.3084 49.0577 46.9576 48.3688 50.1937 46.7382C50.9505 46.3726 51.6117 45.8437 52.1273 45.1918C52.6428 44.5399 52.9991 43.7821 53.1691 42.9759Z" fill="url(#paint3_linear_1145_523)"/>
</g>
<g filter="url(#filter3_bi_1145_523)">
<mask id="path-7-inside-1_1145_523" fill="white">
<path fill-rule="evenodd" clip-rule="evenodd" d="M65.6748 28.3878C66.924 29.3596 67.7983 30.7152 68.1552 32.2334C68.2068 32.4765 68.2389 32.7232 68.251 32.9712C68.3205 34.7068 67.3934 36.5958 64.6336 38.1514C62.5626 39.1905 60.2773 39.7603 57.9485 39.8181C57.6739 39.835 57.3982 39.8164 57.1286 39.7625C56.8834 39.7169 56.6474 39.6332 56.4295 39.5148L51.3684 36.668L47.3484 34.4068L19.0994 18.5174C18.966 18.4551 18.8483 18.365 18.7547 18.2534C18.6611 18.1419 18.5938 18.0116 18.5577 17.8719C18.5383 17.7608 18.5235 17.6496 18.5143 17.5385C18.4922 17.3056 18.503 17.0708 18.5463 16.8407C18.5984 16.6012 18.7045 16.3759 18.8567 16.1811C19.0089 15.9863 19.2036 15.8268 19.4267 15.714C22.0203 14.3391 24.8914 13.5339 27.8383 13.3551C30.2936 13.1418 32.7674 13.4391 35.0959 14.2273C36.1376 13.7614 37.2633 13.5001 38.4088 13.4584C40.2949 13.3818 42.1815 13.6002 43.9968 14.1051C46.6418 14.7008 49.066 15.9979 51.0012 17.853C51.284 17.7963 51.5782 17.7496 51.885 17.7152C53.1208 17.5894 54.3691 17.6482 55.5867 17.8897C58.3138 18.4898 60.9207 19.5237 63.3027 20.9497C65.9576 22.4376 66.9635 23.9998 67.033 25.3943C67.043 25.5902 67.0346 25.7866 67.0079 25.981C66.8499 26.9051 66.3809 27.7518 65.6748 28.3878ZM52.6243 42.1227C52.802 42.2164 52.9535 42.3511 53.0656 42.5149C53.1082 42.5798 53.1394 42.6511 53.158 42.726C53.1786 42.8079 53.1817 42.893 53.1671 42.976C52.9987 43.7846 52.6428 44.545 52.1268 45.1992C51.6107 45.8534 50.9481 46.384 50.1895 46.7506C46.9536 48.3817 43.3042 49.0706 39.6772 48.7351C37.337 48.6101 35.0299 48.1396 32.8347 47.3395C31.4507 47.7795 30.0107 48.0308 28.5559 48.0862C25.4286 48.2383 22.3219 47.5153 19.6026 46.0028C18.5595 45.4266 17.5544 44.7876 16.593 44.0894L16.4608 43.9783C16.2806 43.8438 16.1004 43.7083 15.9385 43.5749C15.2017 42.9011 14.5484 42.1455 13.9918 41.3238C13.9692 41.2779 13.9505 41.2303 13.9359 41.1815C13.8551 40.9908 13.7969 40.7917 13.7626 40.5882C13.7093 40.2476 13.7414 39.8996 13.8561 39.5737C13.9193 39.4 14.0031 39.234 14.1058 39.0792C11.5364 38.4275 9.21892 37.0575 7.43899 35.138C6.7476 34.4037 6.32881 33.4648 6.24954 32.4713C6.24776 32.31 6.26151 32.1489 6.2906 31.9901C6.37622 31.605 6.54179 31.241 6.77713 30.9206C7.01248 30.6001 7.31261 30.33 7.65909 30.1267C7.16097 29.7385 6.75578 29.249 6.47176 28.6925C6.18774 28.1359 6.03173 27.5257 6.01462 26.9044C6.01516 26.6137 6.04766 26.3239 6.11155 26.0399C6.44542 25.016 6.98897 24.0687 7.70932 23.2553C8.42968 22.4419 9.31187 21.7793 10.3026 21.3076C10.9263 21.0057 11.6091 20.8371 12.3051 20.8131C12.9179 20.78 13.5321 20.7819 14.1446 20.8187C14.5468 20.8333 14.9401 20.9378 15.2941 21.1242L24.9283 26.5433L28.0678 28.3089L52.6243 42.1227Z"/>
</mask>
<path fill-rule="evenodd" clip-rule="evenodd" d="M65.6748 28.3878C66.924 29.3596 67.7983 30.7152 68.1552 32.2334C68.2068 32.4765 68.2389 32.7232 68.251 32.9712C68.3205 34.7068 67.3934 36.5958 64.6336 38.1514C62.5626 39.1905 60.2773 39.7603 57.9485 39.8181C57.6739 39.835 57.3982 39.8164 57.1286 39.7625C56.8834 39.7169 56.6474 39.6332 56.4295 39.5148L51.3684 36.668L47.3484 34.4068L19.0994 18.5174C18.966 18.4551 18.8483 18.365 18.7547 18.2534C18.6611 18.1419 18.5938 18.0116 18.5577 17.8719C18.5383 17.7608 18.5235 17.6496 18.5143 17.5385C18.4922 17.3056 18.503 17.0708 18.5463 16.8407C18.5984 16.6012 18.7045 16.3759 18.8567 16.1811C19.0089 15.9863 19.2036 15.8268 19.4267 15.714C22.0203 14.3391 24.8914 13.5339 27.8383 13.3551C30.2936 13.1418 32.7674 13.4391 35.0959 14.2273C36.1376 13.7614 37.2633 13.5001 38.4088 13.4584C40.2949 13.3818 42.1815 13.6002 43.9968 14.1051C46.6418 14.7008 49.066 15.9979 51.0012 17.853C51.284 17.7963 51.5782 17.7496 51.885 17.7152C53.1208 17.5894 54.3691 17.6482 55.5867 17.8897C58.3138 18.4898 60.9207 19.5237 63.3027 20.9497C65.9576 22.4376 66.9635 23.9998 67.033 25.3943C67.043 25.5902 67.0346 25.7866 67.0079 25.981C66.8499 26.9051 66.3809 27.7518 65.6748 28.3878ZM52.6243 42.1227C52.802 42.2164 52.9535 42.3511 53.0656 42.5149C53.1082 42.5798 53.1394 42.6511 53.158 42.726C53.1786 42.8079 53.1817 42.893 53.1671 42.976C52.9987 43.7846 52.6428 44.545 52.1268 45.1992C51.6107 45.8534 50.9481 46.384 50.1895 46.7506C46.9536 48.3817 43.3042 49.0706 39.6772 48.7351C37.337 48.6101 35.0299 48.1396 32.8347 47.3395C31.4507 47.7795 30.0107 48.0308 28.5559 48.0862C25.4286 48.2383 22.3219 47.5153 19.6026 46.0028C18.5595 45.4266 17.5544 44.7876 16.593 44.0894L16.4608 43.9783C16.2806 43.8438 16.1004 43.7083 15.9385 43.5749C15.2017 42.9011 14.5484 42.1455 13.9918 41.3238C13.9692 41.2779 13.9505 41.2303 13.9359 41.1815C13.8551 40.9908 13.7969 40.7917 13.7626 40.5882C13.7093 40.2476 13.7414 39.8996 13.8561 39.5737C13.9193 39.4 14.0031 39.234 14.1058 39.0792C11.5364 38.4275 9.21892 37.0575 7.43899 35.138C6.7476 34.4037 6.32881 33.4648 6.24954 32.4713C6.24776 32.31 6.26151 32.1489 6.2906 31.9901C6.37622 31.605 6.54179 31.241 6.77713 30.9206C7.01248 30.6001 7.31261 30.33 7.65909 30.1267C7.16097 29.7385 6.75578 29.249 6.47176 28.6925C6.18774 28.1359 6.03173 27.5257 6.01462 26.9044C6.01516 26.6137 6.04766 26.3239 6.11155 26.0399C6.44542 25.016 6.98897 24.0687 7.70932 23.2553C8.42968 22.4419 9.31187 21.7793 10.3026 21.3076C10.9263 21.0057 11.6091 20.8371 12.3051 20.8131C12.9179 20.78 13.5321 20.7819 14.1446 20.8187C14.5468 20.8333 14.9401 20.9378 15.2941 21.1242L24.9283 26.5433L28.0678 28.3089L52.6243 42.1227Z" fill="url(#paint4_linear_1145_523)" fill-opacity="0.35"/>
<path d="M68.1552 32.2334L68.2835 32.2062L68.2828 32.2034L68.1552 32.2334ZM65.6748 28.3878L65.587 28.2903L65.4707 28.3951L65.5943 28.4912L65.6748 28.3878ZM68.251 32.9712L68.382 32.966L68.3819 32.9648L68.251 32.9712ZM64.6336 38.1514L64.6925 38.2687L64.698 38.2656L64.6336 38.1514ZM57.9485 39.8181L57.9453 39.6869L57.9405 39.6872L57.9485 39.8181ZM57.1286 39.7625L57.1542 39.634L57.1526 39.6336L57.1286 39.7625ZM56.4295 39.5148L56.3652 39.629L56.3669 39.6299L56.4295 39.5148ZM51.3684 36.668L51.3041 36.7823V36.7823L51.3684 36.668ZM47.3484 34.4068L47.4127 34.2926V34.2925L47.3484 34.4068ZM19.0994 18.5174L19.1638 18.4028L19.1549 18.3987L19.0994 18.5174ZM18.5577 17.8719L18.4281 17.8945L18.4307 17.9047L18.5577 17.8719ZM18.5143 17.5385L18.645 17.5278L18.6449 17.5261L18.5143 17.5385ZM18.5463 16.8407L18.4181 16.8128L18.4174 16.8165L18.5463 16.8407ZM18.8567 16.1811L18.96 16.2618V16.2618L18.8567 16.1811ZM19.4267 15.714L19.4858 15.8311L19.4881 15.8299L19.4267 15.714ZM27.8383 13.3551L27.8463 13.486L27.8497 13.4857L27.8383 13.3551ZM35.0959 14.2273L35.0538 14.3515L35.1025 14.368L35.1494 14.347L35.0959 14.2273ZM38.4088 13.4584L38.4135 13.5894L38.4141 13.5894L38.4088 13.4584ZM43.9968 14.1051L43.9616 14.2316L43.968 14.233L43.9968 14.1051ZM51.0012 17.853L50.9104 17.9476L50.9598 17.995L51.0269 17.9815L51.0012 17.853ZM51.885 17.7152L51.8717 17.5848L51.8703 17.5849L51.885 17.7152ZM55.5867 17.8897L55.6149 17.7616L55.6122 17.761L55.5867 17.8897ZM63.3027 20.9497L63.2354 21.0623L63.2386 21.0641L63.3027 20.9497ZM67.033 25.3943L66.9021 25.4009L66.9021 25.401L67.033 25.3943ZM67.0079 25.981L67.1372 26.0031L67.1378 25.9988L67.0079 25.981ZM53.0656 42.5149L53.1752 42.443L53.1738 42.4408L53.0656 42.5149ZM52.6243 42.1227L52.5599 42.237L52.5631 42.2386L52.6243 42.1227ZM53.158 42.726L53.0307 42.7576L53.0308 42.7581L53.158 42.726ZM53.1671 42.976L53.2955 43.0028L53.2962 42.9988L53.1671 42.976ZM52.1268 45.1992L52.0238 45.118L52.1268 45.1992ZM50.1895 46.7506L50.1324 46.6325L50.1305 46.6335L50.1895 46.7506ZM39.6772 48.7351L39.6893 48.6044L39.6842 48.6042L39.6772 48.7351ZM32.8347 47.3395L32.8796 47.2163L32.8376 47.201L32.795 47.2145L32.8347 47.3395ZM28.5559 48.0862L28.5509 47.9552L28.5496 47.9552L28.5559 48.0862ZM19.6026 46.0028L19.6663 45.8882L19.666 45.888L19.6026 46.0028ZM16.593 44.0894L16.5085 44.19L16.516 44.1955L16.593 44.0894ZM16.4608 43.9783L16.5452 43.8777L16.5392 43.8732L16.4608 43.9783ZM15.9385 43.5749L15.8498 43.6718L15.8551 43.6761L15.9385 43.5749ZM13.9918 41.3238L13.8742 41.3817L13.8781 41.3898L13.8832 41.3973L13.9918 41.3238ZM13.9359 41.1815L14.0615 41.1439L14.0594 41.137L14.0566 41.1304L13.9359 41.1815ZM13.7626 40.5882L13.633 40.6084L13.6333 40.61L13.7626 40.5882ZM13.8561 39.5737L13.7329 39.5288L13.7324 39.5302L13.8561 39.5737ZM14.1058 39.0792L14.2151 39.1517L14.3173 38.9976L14.1381 38.9522L14.1058 39.0792ZM7.43899 35.138L7.53513 35.0489L7.53445 35.0481L7.43899 35.138ZM6.24954 32.4713L6.11813 32.4727L6.11885 32.4817L6.24954 32.4713ZM6.2906 31.9901L6.16252 31.9617L6.16163 31.9665L6.2906 31.9901ZM6.77713 30.9206L6.88281 30.9982L6.77713 30.9206ZM7.65909 30.1267L7.72543 30.2398L7.89204 30.1421L7.73969 30.0233L7.65909 30.1267ZM6.47176 28.6925L6.58854 28.6329L6.47176 28.6925ZM6.01462 26.9044L5.88345 26.9042L5.88356 26.908L6.01462 26.9044ZM6.11155 26.0399L5.98635 25.9991L5.98364 26.0112L6.11155 26.0399ZM10.3026 21.3076L10.3589 21.426L10.3597 21.4256L10.3026 21.3076ZM12.3051 20.8131L12.3096 20.9442L12.3122 20.944L12.3051 20.8131ZM14.1446 20.8187L14.1367 20.9496L14.1398 20.9497L14.1446 20.8187ZM15.2941 21.1242L15.3584 21.0099L15.3552 21.0082L15.2941 21.1242ZM24.9283 26.5433L24.864 26.6576L24.864 26.6576L24.9283 26.5433ZM28.0678 28.3089L28.1321 28.1946L28.1321 28.1946L28.0678 28.3089ZM68.2828 32.2034C67.919 30.6556 67.0278 29.2742 65.7553 28.2843L65.5943 28.4912C66.8202 29.445 67.6777 30.7748 68.0275 32.2634L68.2828 32.2034ZM68.3819 32.9648C68.3695 32.7098 68.3365 32.4562 68.2834 32.2062L68.0269 32.2607C68.0771 32.4969 68.1083 32.7366 68.12 32.9776L68.3819 32.9648ZM64.698 38.2656C67.4889 36.6925 68.454 34.7629 68.382 32.966L68.12 32.9765C68.1871 34.6508 67.2979 36.4991 64.5692 38.0372L64.698 38.2656ZM57.9518 39.9492C60.2997 39.8909 62.604 39.3164 64.6924 38.2686L64.5748 38.0342C62.5211 39.0646 60.2548 39.6297 57.9453 39.687L57.9518 39.9492ZM57.1029 39.8911C57.3836 39.9471 57.6707 39.9666 57.9566 39.949L57.9405 39.6872C57.6771 39.7035 57.4127 39.6856 57.1542 39.634L57.1029 39.8911ZM56.3669 39.6299C56.5969 39.755 56.846 39.8433 57.1046 39.8914L57.1526 39.6336C56.9209 39.5905 56.6979 39.5115 56.4921 39.3996L56.3669 39.6299ZM51.3041 36.7823L56.3652 39.629L56.4938 39.4005L51.4326 36.5537L51.3041 36.7823ZM47.2841 34.5211L51.3041 36.7823L51.4326 36.5537L47.4127 34.2926L47.2841 34.5211ZM19.0351 18.6317L47.2841 34.5211L47.4127 34.2925L19.1636 18.4032L19.0351 18.6317ZM18.6543 18.3377C18.7603 18.4641 18.8934 18.5659 19.0439 18.6362L19.1549 18.3987C19.0386 18.3444 18.9364 18.2659 18.8552 18.1692L18.6543 18.3377ZM18.4307 17.9047C18.4718 18.0635 18.5482 18.2113 18.6543 18.3377L18.8552 18.1692C18.774 18.0724 18.7158 17.9597 18.6846 17.839L18.4307 17.9047ZM18.3837 17.5493C18.3932 17.6648 18.4085 17.7799 18.4285 17.8944L18.6868 17.8493C18.668 17.7416 18.6538 17.6345 18.645 17.5278L18.3837 17.5493ZM18.4174 16.8165C18.3719 17.0586 18.3606 17.3057 18.3838 17.5509L18.6449 17.5261C18.6239 17.3055 18.6341 17.083 18.6751 16.865L18.4174 16.8165ZM18.7534 16.1004C18.5891 16.3106 18.4746 16.5539 18.4182 16.8128L18.6744 16.8686C18.7223 16.6485 18.8198 16.4413 18.96 16.2618L18.7534 16.1004ZM19.3675 15.597C19.1274 15.7184 18.9176 15.8902 18.7534 16.1004L18.96 16.2618C19.1002 16.0824 19.2797 15.9352 19.4858 15.831L19.3675 15.597ZM27.8304 13.2242C24.8648 13.4042 21.9755 14.2144 19.3653 15.5982L19.4881 15.8299C22.0651 14.4637 24.9179 13.6637 27.8463 13.4859L27.8304 13.2242ZM35.1379 14.1031C32.7922 13.3091 30.3003 13.0096 27.827 13.2244L27.8497 13.4857C30.2869 13.274 32.7425 13.5691 35.0538 14.3515L35.1379 14.1031ZM38.404 13.3274C37.2418 13.3697 36.0995 13.6348 35.0423 14.1076L35.1494 14.347C36.1757 13.888 37.2849 13.6305 38.4135 13.5894L38.404 13.3274ZM44.0319 13.9788C42.2034 13.4702 40.3032 13.2503 38.4034 13.3274L38.4141 13.5894C40.2866 13.5134 42.1595 13.7302 43.9616 14.2314L44.0319 13.9788ZM51.0919 17.7583C49.1393 15.8866 46.6936 14.578 44.0256 13.9772L43.968 14.233C46.5899 14.8235 48.9927 16.1093 50.9104 17.9476L51.0919 17.7583ZM51.8703 17.5849C51.5597 17.6198 51.2618 17.667 50.9754 17.7244L51.0269 17.9815C51.3061 17.9256 51.5967 17.8795 51.8996 17.8455L51.8703 17.5849ZM55.6122 17.761C54.3819 17.5171 53.1205 17.4576 51.8717 17.5848L51.8983 17.8456C53.1212 17.7211 54.3564 17.7793 55.5612 18.0183L55.6122 17.761ZM63.3701 20.8373C60.9758 19.4039 58.3557 18.3648 55.6149 17.7616L55.5586 18.0177C58.2719 18.6149 60.8655 19.6435 63.2354 21.0622L63.3701 20.8373ZM67.164 25.3878C67.0911 23.9281 66.0395 22.3331 63.3668 20.8354L63.2386 21.0641C65.8758 22.542 66.8358 24.0716 66.9021 25.4009L67.164 25.3878ZM67.1378 25.9988C67.1656 25.7963 67.1744 25.5917 67.164 25.3877L66.9021 25.401C66.9116 25.5887 66.9036 25.7769 66.878 25.9632L67.1378 25.9988ZM65.7625 28.4852C66.4902 27.8298 66.9741 26.9567 67.1372 26.0031L66.8787 25.9589C66.7257 26.8536 66.2716 27.6738 65.587 28.2903L65.7625 28.4852ZM53.1738 42.4408C53.0495 42.2592 52.8817 42.1103 52.6854 42.0067L52.5631 42.2386C52.7222 42.3226 52.8574 42.4429 52.9574 42.589L53.1738 42.4408ZM53.2852 42.6944C53.2631 42.6051 53.2259 42.5202 53.1752 42.443L52.956 42.5868C52.9905 42.6394 53.0157 42.6972 53.0307 42.7576L53.2852 42.6944ZM53.2962 42.9988C53.3141 42.8975 53.3103 42.7937 53.2851 42.6939L53.0308 42.7581C53.047 42.822 53.0494 42.8884 53.038 42.9532L53.2962 42.9988ZM52.2297 45.2804C52.7582 44.6104 53.1228 43.8314 53.2954 43.0028L53.0387 42.9493C52.8745 43.7378 52.5274 44.4796 52.0238 45.118L52.2297 45.2804ZM50.2465 46.8686C51.0228 46.4935 51.7012 45.9503 52.2297 45.2804L52.0238 45.118C51.5202 45.7564 50.8734 46.2745 50.1324 46.6325L50.2465 46.8686ZM39.6651 48.8656C43.3164 49.2034 46.9905 48.5099 50.2485 46.8677L50.1305 46.6335C46.9166 48.2534 43.2919 48.9378 39.6893 48.6045L39.6651 48.8656ZM32.7898 47.4627C34.9972 48.2672 37.3171 48.7404 39.6702 48.866L39.6842 48.6042C37.3569 48.4799 35.0626 48.0119 32.8796 47.2163L32.7898 47.4627ZM28.5609 48.2172C30.0275 48.1614 31.4791 47.9081 32.8745 47.4644L32.795 47.2145C31.4222 47.651 29.994 47.9003 28.5509 47.9552L28.5609 48.2172ZM19.5389 46.1174C22.2797 47.6419 25.4107 48.3704 28.5623 48.2171L28.5496 47.9552C25.4465 48.1061 22.3641 47.3888 19.6663 45.8882L19.5389 46.1174ZM16.516 44.1955C17.4817 44.8968 18.4914 45.5388 19.5392 46.1175L19.666 45.888C18.6276 45.3145 17.6271 44.6783 16.6701 43.9833L16.516 44.1955ZM16.3764 44.0787L16.5087 44.1898L16.6774 43.989L16.5451 43.8779L16.3764 44.0787ZM15.8551 43.6761C16.0198 43.8117 16.2023 43.949 16.3824 44.0834L16.5392 43.8732C16.3588 43.7386 16.181 43.6048 16.0218 43.4737L15.8551 43.6761ZM13.8832 41.3973C14.4456 42.2276 15.1057 42.9909 15.85 43.6717L16.0269 43.4782C15.2977 42.8112 14.6511 42.0635 14.1003 41.2502L13.8832 41.3973ZM13.8103 41.2191C13.827 41.2749 13.8484 41.3293 13.8742 41.3817L14.1094 41.2658C14.09 41.2265 14.074 41.1857 14.0615 41.1439L13.8103 41.2191ZM13.6333 40.61C13.6694 40.8237 13.7304 41.0326 13.8152 41.2327L14.0566 41.1304C13.9798 40.949 13.9245 40.7598 13.8918 40.5663L13.6333 40.61ZM13.7324 39.5302C13.6105 39.8764 13.5764 40.2464 13.633 40.6084L13.8921 40.5679C13.8422 40.2488 13.8722 39.9227 13.9797 39.6172L13.7324 39.5302ZM13.9966 39.0068C13.8882 39.1701 13.7997 39.3454 13.7329 39.5288L13.9793 39.6185C14.039 39.4546 14.1181 39.2979 14.2151 39.1517L13.9966 39.0068ZM7.34285 35.2272C9.14021 37.1654 11.48 38.5485 14.0736 39.2063L14.1381 38.9522C11.5928 38.3066 9.29764 36.9495 7.53513 35.0489L7.34285 35.2272ZM6.11885 32.4817C6.20052 33.5053 6.63197 34.4721 7.34353 35.2279L7.53445 35.0481C6.86323 34.3352 6.45711 33.4242 6.38024 32.4608L6.11885 32.4817ZM6.16163 31.9665C6.13103 32.1335 6.11657 32.303 6.11844 32.4727L6.38065 32.4698C6.37896 32.317 6.39199 32.1643 6.41956 32.0138L6.16163 31.9665ZM6.67146 30.843C6.42544 31.178 6.25221 31.5587 6.16261 31.9617L6.41858 32.0186C6.50023 31.6514 6.65815 31.3041 6.88281 30.9982L6.67146 30.843ZM7.59275 30.0137C7.23105 30.2258 6.91748 30.508 6.67146 30.843L6.88281 30.9982C7.10748 30.6923 7.39418 30.4341 7.72543 30.2398L7.59275 30.0137ZM6.35498 28.7521C6.6478 29.3259 7.06542 29.8302 7.57848 30.2302L7.73969 30.0233C7.25652 29.6467 6.86375 29.1721 6.58854 28.6329L6.35498 28.7521ZM5.88356 26.908C5.90121 27.5489 6.06214 28.1783 6.35498 28.7521L6.58854 28.6329C6.31334 28.0936 6.16225 27.5025 6.14568 26.9008L5.88356 26.908ZM5.98364 26.0112C5.91764 26.3045 5.88407 26.6039 5.88351 26.9042L6.14573 26.9047C6.14625 26.6236 6.17768 26.3433 6.23947 26.0687L5.98364 26.0112ZM7.61117 23.1684C6.87902 23.9951 6.32639 24.9581 5.9869 25.9993L6.2362 26.0806C6.56446 25.0739 7.09893 24.1423 7.80748 23.3422L7.61117 23.1684ZM10.2462 21.1892C9.23977 21.6684 8.34332 22.3417 7.61117 23.1684L7.80748 23.3422C8.51604 22.5421 9.38398 21.8902 10.3589 21.426L10.2462 21.1892ZM12.3006 20.6821C11.5864 20.7067 10.8857 20.8797 10.2454 21.1896L10.3597 21.4256C10.9669 21.1317 11.6317 20.9675 12.3096 20.9442L12.3006 20.6821ZM14.1525 20.6878C13.535 20.6507 12.9158 20.6488 12.298 20.6822L12.3122 20.944C12.92 20.9112 13.5292 20.913 14.1367 20.9496L14.1525 20.6878ZM15.3552 21.0082C14.9836 20.8126 14.5711 20.7029 14.1493 20.6877L14.1398 20.9497C14.5225 20.9636 14.8965 21.063 15.233 21.2403L15.3552 21.0082ZM24.9926 26.429L15.3584 21.01L15.2298 21.2385L24.864 26.6576L24.9926 26.429ZM28.1321 28.1946L24.9926 26.429L24.864 26.6576L28.0036 28.4232L28.1321 28.1946ZM52.6885 42.0084L28.1321 28.1946L28.0036 28.4232L52.56 42.2369L52.6885 42.0084Z" fill="url(#paint5_linear_1145_523)" mask="url(#path-7-inside-1_1145_523)"/>
</g>
<defs>
<filter id="filter0_di_1145_523" x="0.810869" y="17.9905" width="85.3107" height="54.8118" filterUnits="userSpaceOnUse" color-interpolation-filters="sRGB">
<feFlood flood-opacity="0" result="BackgroundImageFix"/>
<feColorMatrix in="SourceAlpha" type="matrix" values="0 0 0 0 0 0 0 0 0 0 0 0 0 0 0 0 0 0 127 0" result="hardAlpha"/>
<feOffset dy="5.24444"/>
<feGaussianBlur stdDeviation="3.27778"/>
<feComposite in2="hardAlpha" operator="out"/>
<feColorMatrix type="matrix" values="0 0 0 0 0.0980392 0 0 0 0 0.211765 0 0 0 0 0.482353 0 0 0 0.5 0"/>
<feBlend mode="normal" in2="BackgroundImageFix" result="effect1_dropShadow_1145_523"/>
<feBlend mode="normal" in="SourceGraphic" in2="effect1_dropShadow_1145_523" result="shape"/>
<feColorMatrix in="SourceAlpha" type="matrix" values="0 0 0 0 0 0 0 0 0 0 0 0 0 0 0 0 0 0 127 0" result="hardAlpha"/>
<feOffset/>
<feGaussianBlur stdDeviation="2.62222"/>
<feComposite in2="hardAlpha" operator="arithmetic" k2="-1" k3="1"/>
<feColorMatrix type="matrix" values="0 0 0 0 1 0 0 0 0 1 0 0 0 0 1 0 0 0 0.25 0"/>
<feBlend mode="normal" in2="shape" result="effect2_innerShadow_1145_523"/>
</filter>
<filter id="filter1_f_1145_523" x="5.0014" y="20.679" width="65.868" height="34.8775" filterUnits="userSpaceOnUse" color-interpolation-filters="sRGB">
<feFlood flood-opacity="0" result="BackgroundImageFix"/>
<feBlend mode="normal" in="SourceGraphic" in2="BackgroundImageFix" result="shape"/>
<feGaussianBlur stdDeviation="1.31111" result="effect1_foregroundBlur_1145_523"/>
</filter>
<filter id="filter2_b_1145_523" x="4.70329" y="16.0518" width="64.8543" height="36.5492" filterUnits="userSpaceOnUse" color-interpolation-filters="sRGB">
<feFlood flood-opacity="0" result="BackgroundImageFix"/>
<feGaussianBlur in="BackgroundImageFix" stdDeviation="0.655556"/>
<feComposite in2="SourceAlpha" operator="in" result="effect1_backgroundBlur_1145_523"/>
<feBlend mode="normal" in="SourceGraphic" in2="effect1_backgroundBlur_1145_523" result="shape"/>
</filter>
<filter id="filter3_bi_1145_523" x="2.08128" y="9.35475" width="70.1066" height="43.3965" filterUnits="userSpaceOnUse" color-interpolation-filters="sRGB">
<feFlood flood-opacity="0" result="BackgroundImageFix"/>
<feGaussianBlur in="BackgroundImageFix" stdDeviation="1.96667"/>
<feComposite in2="SourceAlpha" operator="in" result="effect1_backgroundBlur_1145_523"/>
<feBlend mode="normal" in="SourceGraphic" in2="effect1_backgroundBlur_1145_523" result="shape"/>
<feColorMatrix in="SourceAlpha" type="matrix" values="0 0 0 0 0 0 0 0 0 0 0 0 0 0 0 0 0 0 127 0" result="hardAlpha"/>
<feOffset/>
<feGaussianBlur stdDeviation="0.983333"/>
<feComposite in2="hardAlpha" operator="arithmetic" k2="-1" k3="1"/>
<feColorMatrix type="matrix" values="0 0 0 0 1 0 0 0 0 1 0 0 0 0 1 0 0 0 0.5 0"/>
<feBlend mode="normal" in2="shape" result="effect2_innerShadow_1145_523"/>
</filter>
<linearGradient id="paint0_linear_1145_523" x1="76.1279" y1="27.2757" x2="9.4404" y2="48.7321" gradientUnits="userSpaceOnUse">
<stop stop-color="#00298D"/>
<stop offset="0.189268" stop-color="#2349A7"/>
<stop offset="0.646435" stop-color="#3155AD"/>
<stop offset="1" stop-color="#032C91"/>
</linearGradient>
<radialGradient id="paint1_radial_1145_523" cx="0" cy="0" r="1" gradientUnits="userSpaceOnUse" gradientTransform="translate(43.4662 40.152) rotate(90) scale(28.6214 49.5543)">
<stop offset="0.0520833" stop-color="#062E8D"/>
<stop offset="1" stop-color="#2968FE"/>
</radialGradient>
<linearGradient id="paint2_linear_1145_523" x1="31.9512" y1="18.103" x2="51.5522" y2="59.7903" gradientUnits="userSpaceOnUse">
<stop stop-color="white" stop-opacity="0"/>
<stop offset="1" stop-color="white" stop-opacity="0.43"/>
</linearGradient>
<linearGradient id="paint3_linear_1145_523" x1="68.309" y1="66.805" x2="21.0184" y2="-2.0613" gradientUnits="userSpaceOnUse">
<stop stop-color="#E9F7FF"/>
<stop offset="0.579246" stop-color="#D7F0FF" stop-opacity="0.57"/>
<stop offset="0.956471" stop-color="#BDE7FF" stop-opacity="0"/>
</linearGradient>
<linearGradient id="paint4_linear_1145_523" x1="6.01462" y1="10.2198" x2="63.3373" y2="55.0987" gradientUnits="userSpaceOnUse">
<stop offset="0.0529546" stop-color="#3FA6E0"/>
<stop offset="0.461273" stop-color="#79CFFF"/>
<stop offset="1" stop-color="#79CFFF"/>
</linearGradient>
<linearGradient id="paint5_linear_1145_523" x1="66.6261" y1="54.0076" x2="11.4166" y2="15.1172" gradientUnits="userSpaceOnUse">
<stop stop-color="#E9F7FF"/>
<stop offset="0.923987" stop-color="#BDE7FF" stop-opacity="0"/>
</linearGradient>
</defs>
</svg>
