<svg width="86" height="80" viewBox="0 0 86 80" fill="none" xmlns="http://www.w3.org/2000/svg">
<path d="M79.1419 41.2135C79.1419 46.5462 75.6048 51.876 68.5691 55.9452C54.4711 64.0866 31.6145 64.0881 17.5165 55.9452C9.99293 51.5988 6.52517 45.812 7.03361 40.121C6.98909 40.3259 6.95564 40.5331 6.9334 40.7417C6.25547 48.171 8.54127 53.2737 17.5165 58.4517C31.6145 66.5945 54.4711 66.5931 68.5691 58.4517C76.6409 53.7883 79.3069 47.8746 79.1419 41.2135Z" fill="url(#paint0_linear_1145_430)"/>
<g filter="url(#filter0_di_1145_430)">
<path d="M43.0444 62.052C62.9818 62.052 79.1442 52.717 79.1442 41.2017C79.1442 29.6863 62.9818 20.3513 43.0444 20.3513C23.107 20.3513 6.94458 29.6863 6.94458 41.2017C6.94458 52.717 23.107 62.052 43.0444 62.052Z" fill="url(#paint1_radial_1145_430)"/>
<path d="M79.0786 41.2017C79.0786 46.926 75.0609 52.1209 68.538 55.8883C62.0169 59.6548 53.0037 61.9865 43.0444 61.9865C33.0851 61.9865 24.0719 59.6548 17.5508 55.8883C11.0279 52.1209 7.01014 46.926 7.01014 41.2017C7.01014 35.4773 11.0279 30.2825 17.5508 26.515C24.0719 22.7486 33.0851 20.4169 43.0444 20.4169C53.0037 20.4169 62.0169 22.7486 68.538 26.515C75.0609 30.2825 79.0786 35.4773 79.0786 41.2017Z" stroke="url(#paint2_linear_1145_430)" stroke-width="0.131111" stroke-linejoin="round"/>
</g>
<g style="mix-blend-mode:multiply" filter="url(#filter1_f_1145_430)">
<path d="M21.7928 28.8549C21.0515 28.5879 20.223 28.4503 19.3828 28.4547C18.5348 28.4388 17.6939 28.5632 16.9335 28.8169C16.6178 28.9241 16.3387 29.0745 16.114 29.2586C15.9307 29.4088 15.8229 29.5944 15.8064 29.7887C15.8012 29.9818 15.8899 30.1708 16.059 30.3267C16.1543 30.417 16.2655 30.4991 16.3902 30.5714C16.556 30.4718 16.7383 30.3856 16.9335 30.3143C17.6939 30.0606 18.5348 29.9362 19.3828 29.9521C20.223 29.9477 21.0515 30.0853 21.7928 30.3523C21.9505 30.4135 22.0991 30.4848 22.2366 30.5652C22.4138 30.4736 22.5582 30.3562 22.6591 30.2217C22.7599 30.0873 22.8146 29.9393 22.8191 29.7887C22.7794 29.5871 22.6643 29.3956 22.4848 29.2323C22.3053 29.0689 22.0671 28.9391 21.7928 28.8549Z" fill="#083090" fill-opacity="0.4"/>
<path d="M31.5924 23.1929C30.8511 22.9259 30.0226 22.7883 29.1823 22.7927C28.3344 22.7769 27.4935 22.9012 26.7331 23.1549C26.4173 23.2621 26.1382 23.4125 25.9136 23.5966C25.7302 23.7468 25.6225 23.9324 25.6059 24.1267C25.6007 24.3198 25.6895 24.5088 25.8586 24.6647C25.9539 24.755 26.0651 24.8372 26.1898 24.9094C26.3556 24.8098 26.5379 24.7236 26.7331 24.6523C27.4935 24.3986 28.3344 24.2742 29.1823 24.2901C30.0226 24.2857 30.8511 24.4233 31.5924 24.6903C31.75 24.7515 31.8987 24.8228 32.0361 24.9032C32.2134 24.8116 32.3578 24.6942 32.4587 24.5598C32.5595 24.4253 32.6142 24.2773 32.6187 24.1267C32.5789 23.9251 32.4639 23.7336 32.2843 23.5703C32.1048 23.407 31.8667 23.2771 31.5924 23.1929Z" fill="#083090" fill-opacity="0.4"/>
<path d="M11.3985 24.3061L13.4286 23.1098L11.7956 22.1469C11.6249 22.0652 11.4753 21.944 11.3587 21.7929C11.242 21.6418 11.1616 21.465 11.1237 21.2766C11.1237 21.2766 11.0863 23.443 11.1237 23.7718C11.1595 23.9744 11.2554 24.1609 11.3985 24.3061Z" fill="#083090" fill-opacity="0.4"/>
<path d="M43.9627 30.7643C44.5213 30.5083 45.0036 30.1061 45.3606 29.5985C45.7177 29.0909 45.9367 28.496 45.9956 27.8742V25.379C45.9367 26.0008 45.7177 26.5957 45.3606 27.1033C45.0036 27.6108 44.5213 28.013 43.9627 28.269L25.4286 39.1776C23.9197 39.9961 22.2311 40.4083 20.5225 40.3753C18.8139 40.4082 17.1253 39.996 15.6163 39.1776L9.08031 35.3704C9.08035 35.7575 8.20044 37.3595 8.20044 37.3595L15.6163 41.6728C17.1253 42.4912 18.8139 42.9034 20.5225 42.8706C22.2311 42.9036 23.9197 42.4913 25.4286 41.6728L43.9627 30.7643Z" fill="#083090" fill-opacity="0.4"/>
<path d="M65.6695 34.0169C65.683 34.2619 65.6738 34.5076 65.6422 34.7508C65.1602 38.4878 61.7043 42.2086 55.4025 45.9192C49.6596 49.4663 43.1558 51.5319 36.4541 51.9371C34.8133 52.0126 33.1697 51.8764 31.5623 51.532C30.1051 51.2318 28.7023 50.7025 27.4043 49.9629L25.4246 48.7975C24.8663 48.5415 24.3843 48.1392 24.0278 47.6316C23.6712 47.124 23.4527 46.5291 23.3945 45.9074C23.3945 45.9074 23.3945 47.3194 23.3945 48.4027C23.4527 49.0243 23.6712 49.6192 24.0278 50.1268C24.3843 50.6344 24.8663 51.0367 25.4246 51.2927L27.4043 52.4582C28.7023 53.1977 30.1051 53.727 31.5623 54.0272C33.1697 54.3717 34.8133 54.5078 36.4541 54.4323C43.1558 54.0271 49.6596 51.9615 55.4025 48.4144C61.7043 44.7038 65.1602 40.983 65.6422 37.246C65.7139 36.1712 65.723 35.0929 65.6695 34.0169Z" fill="#083090" fill-opacity="0.4"/>
</g>
<g filter="url(#filter2_b_1145_430)">
<path d="M22.0358 26.9063C21.2211 26.4626 20.3106 26.2341 19.3871 26.2414C18.4551 26.215 17.531 26.4216 16.6952 26.8432C16.3482 27.0212 16.0415 27.2712 15.7945 27.5771C15.593 27.8265 15.4746 28.135 15.4564 28.4577C15.4507 28.7787 15.5482 29.0926 15.7341 29.3516C15.8388 29.5017 15.9611 29.6382 16.0981 29.7582C16.2803 29.5928 16.4807 29.4495 16.6952 29.3311C17.531 28.9095 18.4551 28.7029 19.3871 28.7293C20.3106 28.7219 21.2211 28.9505 22.0358 29.3942C22.2091 29.4959 22.3725 29.6144 22.5236 29.7479C22.7184 29.5957 22.8771 29.4007 22.9879 29.1773C23.0988 28.954 23.1589 28.708 23.1638 28.4577C23.1201 28.1228 22.9937 27.8047 22.7964 27.5333C22.5991 27.2619 22.3373 27.0461 22.0358 26.9063Z" fill="url(#paint3_linear_1145_430)"/>
<path d="M31.833 21.1348C31.0179 20.6924 30.1076 20.4643 29.1843 20.4714C28.2529 20.4446 27.3292 20.6507 26.4938 21.0717C26.1465 21.2499 25.8393 21.4998 25.5917 21.8056C25.3902 22.0551 25.2718 22.3635 25.2536 22.6863C25.2485 23.0071 25.346 23.3209 25.5313 23.5801C25.636 23.7302 25.7583 23.8667 25.8953 23.9867C26.0773 23.82 26.2783 23.6761 26.4938 23.5581C27.3293 23.1373 28.2528 22.9307 29.1843 22.9563C30.1077 22.9498 31.0181 23.1783 31.833 23.6212C32.0064 23.7235 32.1697 23.8424 32.3208 23.9764C32.5156 23.8242 32.6743 23.6292 32.7851 23.4058C32.896 23.1825 32.9561 22.9366 32.961 22.6863C32.9169 22.3515 32.7903 22.0335 32.5931 21.7622C32.3958 21.4909 32.1343 21.275 31.833 21.1348Z" fill="url(#paint4_linear_1145_430)"/>
<path d="M11.3963 22.2505L13.4264 21.0542L11.7934 20.0913C11.6227 20.0096 11.4731 19.8884 11.3565 19.7373C11.2398 19.5862 11.1594 19.4094 11.1215 19.2209C11.1215 19.2209 11.0841 21.3874 11.1215 21.7162C11.1573 21.9188 11.2532 22.1053 11.3963 22.2505Z" fill="url(#paint5_linear_1145_430)"/>
<path d="M43.9601 28.7087C44.5187 28.4527 45.001 28.0505 45.358 27.5429C45.715 27.0353 45.9341 26.4404 45.993 25.8186V23.3234C45.9341 23.9452 45.715 24.5401 45.358 25.0477C45.001 25.5552 44.5187 25.9574 43.9601 26.2134L25.426 37.122C23.9171 37.9405 22.2285 38.3527 20.5199 38.3197C18.8112 38.3526 17.1226 37.9404 15.6137 37.122L5.79419 31.3375C5.2066 31.0107 4.69366 30.5604 4.28925 30.0165C3.95561 29.5649 3.77076 29.0172 3.76123 28.4518V30.947C3.77076 31.5124 3.95561 32.0602 4.28925 32.5117C4.69366 33.0557 5.2066 33.5059 5.79419 33.8327L15.6137 39.6172C17.1226 40.4356 18.8112 40.8478 20.5199 40.815C22.2285 40.848 23.9171 40.4357 25.426 39.6172L43.9601 28.7087Z" fill="url(#paint6_linear_1145_430)"/>
<path d="M65.665 31.9613C65.6785 32.2063 65.6693 32.452 65.6376 32.6952C65.1557 36.4322 61.6998 40.153 55.398 43.8636C49.6551 47.4107 43.1513 49.4763 36.4496 49.8815C34.8088 49.9569 33.1652 49.8208 31.5578 49.4764C30.1005 49.1762 28.6978 48.6469 27.3998 47.9073L25.4201 46.7419C24.8618 46.4859 24.3798 46.0836 24.0233 45.576C23.6667 45.0684 23.4482 44.4735 23.39 43.8518C23.39 43.8518 23.39 45.2638 23.39 46.3471C23.4482 46.9687 23.6667 47.5636 24.0233 48.0712C24.3798 48.5788 24.8618 48.9811 25.4201 49.2371L27.3998 50.4025C28.6978 51.1421 30.1005 51.6714 31.5578 51.9716C33.1652 52.3161 34.8088 52.4522 36.4496 52.3767C43.1513 51.9715 49.6551 49.9059 55.398 46.3588C61.6998 42.6482 65.1557 38.9274 65.6376 35.1904C65.7094 34.1156 65.7185 33.0373 65.665 31.9613Z" fill="url(#paint7_linear_1145_430)"/>
</g>
<g filter="url(#filter3_bi_1145_430)">
<path d="M50.5027 26.1954C51.2076 25.7935 51.9654 25.4969 52.753 25.3147C54.4997 24.8999 56.3166 24.8999 58.0634 25.3147C58.8514 25.4969 59.6096 25.7935 60.3151 26.1954L62.2862 27.3564C63.3511 27.9464 64.2634 28.786 64.9479 29.8062C65.51 30.6512 65.7542 31.6748 65.6356 32.6889C65.1536 36.4259 61.6977 40.1467 55.396 43.8573C49.653 47.4044 43.1492 49.4699 36.4475 49.8752C34.8067 49.9506 33.1632 49.8145 31.5558 49.4701C30.0985 49.1699 28.6957 48.6406 27.3978 47.901L25.418 46.7356C24.8597 46.4795 24.3778 46.0773 24.0212 45.5697C23.6646 45.0621 23.4461 44.4672 23.3879 43.8455C23.4472 43.224 23.6665 42.6295 24.0235 42.1222C24.3805 41.6149 24.8626 41.2129 25.4209 40.9569L50.5042 26.1939L50.5027 26.1954ZM11.5887 18.309L11.793 18.1725C12.2478 17.9229 12.7543 17.7871 13.2706 17.7762C13.8026 17.7491 14.3338 17.8428 14.8259 18.0507L15.0633 18.1725L16.6949 19.1354L24.3203 14.6395C25.8293 13.8217 27.5179 13.41 29.2264 13.4433C30.9349 13.4098 32.6236 13.8215 34.1326 14.6395L43.9564 20.4256C44.5148 20.6816 44.9969 21.0839 45.3537 21.5915C45.7105 22.099 45.9293 22.6939 45.9879 23.3156C45.9308 23.9381 45.7131 24.5341 45.3571 25.043C45.001 25.5519 44.5192 25.9556 43.9607 26.213L25.4267 37.1216C23.9178 37.9401 22.2291 38.3523 20.5205 38.3193C18.8119 38.3522 17.1233 37.94 15.6143 37.1216L5.79484 31.3371C5.20725 31.0103 4.69431 30.56 4.2899 30.0161C3.94734 29.5694 3.76123 29.0185 3.76123 28.4514C3.76123 27.8842 3.94734 27.3334 4.2899 26.8867C4.69504 26.3435 5.20782 25.8934 5.79484 25.5657L13.4202 21.0699L11.7873 20.107C11.6165 20.0255 11.4667 19.9043 11.3501 19.7532C11.2334 19.602 11.153 19.4251 11.1154 19.2366C11.1069 19.0552 11.1457 18.8747 11.2278 18.7136C11.3099 18.5524 11.4325 18.4164 11.583 18.3193L11.7873 18.1813L11.5801 18.3207L11.5887 18.309ZM16.6963 26.8427C16.3493 27.0208 16.0426 27.2707 15.7956 27.5766C15.5941 27.8261 15.4757 28.1345 15.4575 28.4573C15.4518 28.7782 15.5493 29.0922 15.7352 29.3511C15.9614 29.6636 16.2515 29.9221 16.5855 30.1085C16.9881 30.3382 17.4215 30.5068 17.8718 30.609C18.369 30.7252 18.8781 30.7803 19.3882 30.7734C19.8954 30.7686 20.4002 30.7016 20.8917 30.5738C21.333 30.4628 21.7552 30.2836 22.1434 30.0425C22.4362 29.8945 22.6852 29.6696 22.8647 29.3911C23.0442 29.1125 23.1478 28.7902 23.1649 28.4573C23.1224 28.121 22.9965 27.8014 22.7991 27.5286C22.6017 27.2559 22.3394 27.039 22.037 26.8985C21.2223 26.4548 20.3117 26.2262 19.3882 26.2336C18.4556 26.2095 17.5314 26.4186 16.6963 26.8427ZM26.4942 21.0714C26.1466 21.2491 25.8393 21.4991 25.5921 21.8053C25.3906 22.0547 25.2722 22.3632 25.254 22.6859C25.2489 23.0068 25.3464 23.3206 25.5317 23.5798C25.7583 23.8919 26.0483 24.1503 26.382 24.3372C26.7846 24.5669 27.2179 24.7355 27.6682 24.8377C28.6642 25.0669 29.699 25.0549 30.6896 24.8025C31.1302 24.6905 31.5517 24.5114 31.9399 24.2711C32.2328 24.1233 32.4819 23.8985 32.6614 23.6199C32.8409 23.3413 32.9445 23.0189 32.9614 22.6859C32.9187 22.3496 32.7927 22.0298 32.5954 21.7569C32.3981 21.4839 32.1358 21.2667 31.8334 21.1257C31.0184 20.6832 30.108 20.4552 29.1847 20.4622C28.2522 20.4395 27.3285 20.6502 26.4942 21.0758V21.0714Z" fill="url(#paint8_linear_1145_430)" fill-opacity="0.35"/>
<path d="M16.6664 26.7844L16.6666 26.7843C17.5111 26.3554 18.4456 26.1438 19.3888 26.168C20.3224 26.1608 21.2428 26.3918 22.0665 26.8399C22.3784 26.9852 22.6487 27.209 22.8522 27.4902C23.0561 27.7719 23.1861 28.102 23.23 28.449L23.2315 28.4607L23.2304 28.4606C23.2127 28.8049 23.1056 29.1383 22.9198 29.4266C22.7346 29.714 22.4778 29.9463 22.1756 30.0997C21.7823 30.3436 21.3549 30.5249 20.9079 30.6373C20.4114 30.7664 19.9015 30.8341 19.3891 30.839C19.389 30.839 19.3889 30.839 19.3888 30.839L19.3882 30.7734M16.6664 26.7844L17.8718 30.609C18.369 30.7252 18.8781 30.7803 19.3882 30.7734M16.6664 26.7844C16.3112 26.9667 15.9973 27.2225 15.7446 27.5354M16.6664 26.7844L17.857 30.6729C17.4005 30.5693 16.9613 30.3984 16.5532 30.1655C16.2109 29.9744 15.9137 29.7096 15.6821 29.3896L15.6819 29.3894C15.4878 29.1188 15.386 28.791 15.392 28.4561L15.392 28.4536L15.3921 28.4536C15.411 28.1173 15.5344 27.7957 15.7446 27.5354M19.3882 30.7734C19.8954 30.7686 20.4002 30.7016 20.8917 30.5738C21.333 30.4628 21.7552 30.2836 22.1434 30.0425C22.4362 29.8945 22.6852 29.6696 22.8647 29.3911C23.0442 29.1125 23.1478 28.7902 23.1649 28.4573M19.3882 30.7734L23.1649 28.4573M15.7446 27.5354L15.7956 27.5766M15.7446 27.5354C15.7446 27.5354 15.7446 27.5354 15.7446 27.5354L15.7956 27.5766M15.7956 27.5766C16.0426 27.2707 16.3493 27.0208 16.6963 26.8427M15.7956 27.5766C15.5941 27.8261 15.4757 28.1345 15.4575 28.4573C15.4518 28.7782 15.5493 29.0922 15.7352 29.3511C15.9614 29.6636 16.2515 29.9221 16.5855 30.1085L16.6963 26.8427M16.6963 26.8427C17.5314 26.4186 18.4556 26.2095 19.3882 26.2336C20.3117 26.2262 21.2223 26.4548 22.037 26.8985C22.3394 27.039 22.6017 27.2559 22.7991 27.5286C22.9965 27.8014 23.1224 28.121 23.1649 28.4573M16.6963 26.8427L23.1649 28.4573M25.4542 41.0134L50.5349 26.2519L50.5352 26.2524C51.2346 25.8536 51.9864 25.5594 52.7677 25.3786L52.7681 25.3785C54.5049 24.966 56.3114 24.966 58.0483 25.3785L58.0486 25.3786C58.8302 25.5593 59.5824 25.8535 60.2822 26.2521C60.2823 26.2522 60.2825 26.2523 60.2826 26.2524L62.2529 27.4129L62.2544 27.4138C63.3101 27.9986 64.2147 28.8311 64.8934 29.8427C65.4467 30.6746 65.6872 31.6824 65.5705 32.681C65.0925 36.3848 61.6623 40.0915 55.3627 43.8008L55.3615 43.8015C49.6279 47.3428 43.1347 49.4051 36.444 49.8097C34.809 49.8849 33.1712 49.7492 31.5695 49.406L31.569 49.4059C30.1186 49.1071 28.7225 48.5803 27.4306 47.8443C27.4305 47.8442 27.4303 47.8441 27.4302 47.844L25.4513 46.6791L25.4515 46.6788L25.4454 46.676C24.8977 46.4249 24.4248 46.0302 24.0748 45.532C23.7261 45.0355 23.5118 44.4537 23.4538 43.8456C23.5129 43.2375 23.7279 42.6561 24.0771 42.1599C24.4275 41.662 24.9006 41.2676 25.4482 41.0165L25.4484 41.0168L25.4542 41.0134ZM11.402 19.7131C11.2925 19.5713 11.2167 19.4055 11.1806 19.2287C11.1736 19.0602 11.21 18.8929 11.2862 18.7434C11.3631 18.5924 11.4779 18.4651 11.6185 18.3744L11.6185 18.3744L11.6196 18.3736L11.8239 18.2357L11.8239 18.2356L11.8216 18.2322L11.827 18.2286C12.272 17.985 12.7672 17.8524 13.272 17.8417L13.272 17.8418L13.274 17.8417C13.7952 17.8151 14.3158 17.9068 14.7982 18.1101L15.0317 18.2299L16.6615 19.1918L16.6948 19.2115L16.7281 19.1918L24.3525 14.6966C25.8514 13.8845 27.5284 13.4758 29.2251 13.5088L29.2251 13.5089L29.2277 13.5088C30.9244 13.4756 32.6015 13.8843 34.1003 14.6966C34.1007 14.6968 34.101 14.697 34.1013 14.6972L43.9231 20.482L43.923 20.4823L43.9291 20.4851C44.4768 20.7363 44.9499 21.131 45.3001 21.6292C45.6491 22.1257 45.8637 22.7074 45.9221 23.3157C45.8651 23.9247 45.6517 24.5076 45.3033 25.0054C44.9539 25.5049 44.4811 25.901 43.9333 26.1535L43.9331 26.1532L43.9275 26.1565L25.3954 37.064C25.3951 37.0642 25.3948 37.0643 25.3944 37.0645C23.8957 37.8772 22.2186 38.2865 20.5218 38.2538V38.2537L20.5192 38.2538C18.8224 38.2864 17.1454 37.8771 15.6466 37.0645L5.82811 31.2806L5.82812 31.2806L5.8267 31.2798C5.24731 30.9575 4.74142 30.5135 4.34252 29.9769L4.34192 29.9762C4.00821 29.541 3.82679 29.0042 3.82679 28.4514C3.82679 27.8986 4.00821 27.3618 4.34193 26.9266L4.34245 26.9259C4.74212 26.39 5.2479 25.9461 5.82679 25.623L5.8268 25.623L5.82813 25.6222L13.4535 21.1264L13.5493 21.0699L13.4535 21.0134L11.8206 20.0506L11.8207 20.0504L11.8155 20.0479C11.6541 19.9708 11.5124 19.8562 11.402 19.7131ZM25.4786 23.6183C25.7107 23.938 26.0079 24.2027 26.3498 24.3943C26.7579 24.6271 27.1971 24.798 27.6535 24.9016C28.6597 25.1332 29.7051 25.121 30.7058 24.866C31.152 24.7526 31.5788 24.5714 31.972 24.3284C32.2743 24.1752 32.5312 23.9429 32.7165 23.6554C32.9023 23.3671 33.0094 23.0336 33.0269 22.6893L33.0279 22.6893L33.0265 22.6777C32.9824 22.3305 32.8524 22.0004 32.6485 21.7184C32.4451 21.4371 32.1748 21.2129 31.863 21.0671C31.0389 20.6202 30.1186 20.3898 29.1852 20.3967C28.2776 20.3747 27.3782 20.5713 26.5598 20.9699V20.9642L26.4644 21.013C26.1085 21.195 25.7941 21.4508 25.5411 21.7641C25.3309 22.0243 25.2075 22.3459 25.1886 22.6823L25.1885 22.6823L25.1885 22.6849C25.1831 23.0196 25.2848 23.3472 25.4784 23.6179L25.4786 23.6183Z" stroke="url(#paint9_linear_1145_430)" stroke-width="0.131111"/>
</g>
<defs>
<filter id="filter0_di_1145_430" x="0.389025" y="19.0402" width="85.3107" height="54.8119" filterUnits="userSpaceOnUse" color-interpolation-filters="sRGB">
<feFlood flood-opacity="0" result="BackgroundImageFix"/>
<feColorMatrix in="SourceAlpha" type="matrix" values="0 0 0 0 0 0 0 0 0 0 0 0 0 0 0 0 0 0 127 0" result="hardAlpha"/>
<feOffset dy="5.24444"/>
<feGaussianBlur stdDeviation="3.27778"/>
<feComposite in2="hardAlpha" operator="out"/>
<feColorMatrix type="matrix" values="0 0 0 0 0.0980392 0 0 0 0 0.211765 0 0 0 0 0.482353 0 0 0 0.5 0"/>
<feBlend mode="normal" in2="BackgroundImageFix" result="effect1_dropShadow_1145_430"/>
<feBlend mode="normal" in="SourceGraphic" in2="effect1_dropShadow_1145_430" result="shape"/>
<feColorMatrix in="SourceAlpha" type="matrix" values="0 0 0 0 0 0 0 0 0 0 0 0 0 0 0 0 0 0 127 0" result="hardAlpha"/>
<feOffset/>
<feGaussianBlur stdDeviation="2.62222"/>
<feComposite in2="hardAlpha" operator="arithmetic" k2="-1" k3="1"/>
<feColorMatrix type="matrix" values="0 0 0 0 1 0 0 0 0 1 0 0 0 0 1 0 0 0 0.25 0"/>
<feBlend mode="normal" in2="shape" result="effect2_innerShadow_1145_430"/>
</filter>
<filter id="filter1_f_1145_430" x="5.57822" y="18.6543" width="62.7477" height="38.4204" filterUnits="userSpaceOnUse" color-interpolation-filters="sRGB">
<feFlood flood-opacity="0" result="BackgroundImageFix"/>
<feBlend mode="normal" in="SourceGraphic" in2="BackgroundImageFix" result="shape"/>
<feGaussianBlur stdDeviation="1.31111" result="effect1_foregroundBlur_1145_430"/>
</filter>
<filter id="filter2_b_1145_430" x="2.45012" y="17.9098" width="64.5602" height="35.7982" filterUnits="userSpaceOnUse" color-interpolation-filters="sRGB">
<feFlood flood-opacity="0" result="BackgroundImageFix"/>
<feGaussianBlur in="BackgroundImageFix" stdDeviation="0.655556"/>
<feComposite in2="SourceAlpha" operator="in" result="effect1_backgroundBlur_1145_430"/>
<feBlend mode="normal" in="SourceGraphic" in2="effect1_backgroundBlur_1145_430" result="shape"/>
</filter>
<filter id="filter3_bi_1145_430" x="-0.172103" y="9.50807" width="69.7704" height="44.3206" filterUnits="userSpaceOnUse" color-interpolation-filters="sRGB">
<feFlood flood-opacity="0" result="BackgroundImageFix"/>
<feGaussianBlur in="BackgroundImageFix" stdDeviation="1.96667"/>
<feComposite in2="SourceAlpha" operator="in" result="effect1_backgroundBlur_1145_430"/>
<feBlend mode="normal" in="SourceGraphic" in2="effect1_backgroundBlur_1145_430" result="shape"/>
<feColorMatrix in="SourceAlpha" type="matrix" values="0 0 0 0 0 0 0 0 0 0 0 0 0 0 0 0 0 0 127 0" result="hardAlpha"/>
<feOffset/>
<feGaussianBlur stdDeviation="0.983333"/>
<feComposite in2="hardAlpha" operator="arithmetic" k2="-1" k3="1"/>
<feColorMatrix type="matrix" values="0 0 0 0 1 0 0 0 0 1 0 0 0 0 1 0 0 0 0.5 0"/>
<feBlend mode="normal" in2="shape" result="effect2_innerShadow_1145_430"/>
</filter>
<linearGradient id="paint0_linear_1145_430" x1="75.7056" y1="28.3254" x2="9.01812" y2="49.7817" gradientUnits="userSpaceOnUse">
<stop stop-color="#00298D"/>
<stop offset="0.189268" stop-color="#2349A7"/>
<stop offset="0.646435" stop-color="#3155AD"/>
<stop offset="1" stop-color="#032C91"/>
</linearGradient>
<radialGradient id="paint1_radial_1145_430" cx="0" cy="0" r="1" gradientUnits="userSpaceOnUse" gradientTransform="translate(43.0444 41.2017) rotate(90) scale(28.6214 49.5543)">
<stop offset="0.0520833" stop-color="#062E8D"/>
<stop offset="1" stop-color="#2968FE"/>
</radialGradient>
<linearGradient id="paint2_linear_1145_430" x1="31.5294" y1="19.1527" x2="51.1303" y2="60.84" gradientUnits="userSpaceOnUse">
<stop stop-color="white" stop-opacity="0"/>
<stop offset="1" stop-color="white" stop-opacity="0.43"/>
</linearGradient>
<linearGradient id="paint3_linear_1145_430" x1="23.1716" y1="31.3675" x2="18.6289" y2="23.4685" gradientUnits="userSpaceOnUse">
<stop stop-color="#E9F7FF"/>
<stop offset="0.579246" stop-color="#D7F0FF" stop-opacity="0.57"/>
<stop offset="0.956471" stop-color="#BDE7FF" stop-opacity="0"/>
</linearGradient>
<linearGradient id="paint4_linear_1145_430" x1="32.9688" y1="25.5954" x2="28.4287" y2="17.698" gradientUnits="userSpaceOnUse">
<stop stop-color="#E9F7FF"/>
<stop offset="0.579246" stop-color="#D7F0FF" stop-opacity="0.57"/>
<stop offset="0.956471" stop-color="#BDE7FF" stop-opacity="0"/>
</linearGradient>
<linearGradient id="paint5_linear_1145_430" x1="13.4287" y1="23.6359" x2="9.41061" y2="21.1914" gradientUnits="userSpaceOnUse">
<stop stop-color="#E9F7FF"/>
<stop offset="0.579246" stop-color="#D7F0FF" stop-opacity="0.57"/>
<stop offset="0.956471" stop-color="#BDE7FF" stop-opacity="0"/>
</linearGradient>
<linearGradient id="paint6_linear_1145_430" x1="46.0354" y1="48.8167" x2="24.6056" y2="7.74464" gradientUnits="userSpaceOnUse">
<stop stop-color="#E9F7FF"/>
<stop offset="0.579246" stop-color="#D7F0FF" stop-opacity="0.57"/>
<stop offset="0.956471" stop-color="#BDE7FF" stop-opacity="0"/>
</linearGradient>
<linearGradient id="paint7_linear_1145_430" x1="65.7417" y1="61.7423" x2="38.6368" y2="17.1912" gradientUnits="userSpaceOnUse">
<stop stop-color="#E9F7FF"/>
<stop offset="0.579246" stop-color="#D7F0FF" stop-opacity="0.57"/>
<stop offset="0.956471" stop-color="#BDE7FF" stop-opacity="0"/>
</linearGradient>
<linearGradient id="paint8_linear_1145_430" x1="3.76123" y1="10.2933" x2="62.1113" y2="54.5777" gradientUnits="userSpaceOnUse">
<stop offset="0.0529546" stop-color="#3FA6E0"/>
<stop offset="0.461273" stop-color="#79CFFF"/>
<stop offset="1" stop-color="#79CFFF"/>
</linearGradient>
<linearGradient id="paint9_linear_1145_430" x1="64.0452" y1="55.2201" x2="8.01352" y2="16.9591" gradientUnits="userSpaceOnUse">
<stop stop-color="#E9F7FF"/>
<stop offset="0.923987" stop-color="#BDE7FF" stop-opacity="0"/>
</linearGradient>
</defs>
</svg>
