<svg width="86" height="80" viewBox="0 0 86 80" fill="none" xmlns="http://www.w3.org/2000/svg">
<path d="M79.3346 45.2597C79.3346 50.5925 75.7976 55.9223 68.7618 59.9915C54.6638 68.1329 31.8072 68.1344 17.7092 59.9915C10.1857 55.6451 6.71792 49.8583 7.22636 44.1672C7.18184 44.3722 7.14839 44.5794 7.12615 44.7879C6.44822 52.2172 8.73402 57.32 17.7092 62.4979C31.8072 70.6408 54.6638 70.6393 68.7618 62.4979C76.8336 57.8345 79.4997 51.9209 79.3346 45.2597Z" fill="url(#paint0_linear_1145_488)"/>
<g filter="url(#filter0_di_1145_488)">
<path d="M43.2371 66.0983C63.1745 66.0983 79.3369 56.7633 79.3369 45.2479C79.3369 33.7326 63.1745 24.3976 43.2371 24.3976C23.2998 24.3976 7.13733 33.7326 7.13733 45.2479C7.13733 56.7633 23.2998 66.0983 43.2371 66.0983Z" fill="url(#paint1_radial_1145_488)"/>
<path d="M79.2714 45.2479C79.2714 50.9723 75.2536 56.1672 68.7308 59.9346C62.2096 63.7011 53.1964 66.0327 43.2371 66.0327C33.2779 66.0327 24.2646 63.7011 17.7435 59.9346C11.2206 56.1672 7.20288 50.9723 7.20288 45.2479C7.20288 39.5236 11.2206 34.3287 17.7435 30.5613C24.2646 26.7948 33.2779 24.4631 43.2371 24.4631C53.1964 24.4631 62.2096 26.7948 68.7308 30.5613C75.2536 34.3287 79.2714 39.5236 79.2714 45.2479Z" stroke="url(#paint2_linear_1145_488)" stroke-width="0.131111" stroke-linejoin="round"/>
</g>
<g style="mix-blend-mode:multiply" filter="url(#filter1_f_1145_488)">
<path d="M21.4086 37.922H34.5104C35.2016 37.9352 35.8848 37.7704 36.4951 37.4432C36.721 37.3407 36.9161 37.1799 37.0608 36.9771C37.2054 36.7744 37.2944 36.5368 37.3188 36.2883L37.3063 34.3365C37.3063 22.5437 37.304 19.2173 37.304 34.3297C37.2798 34.5784 37.1908 34.8162 37.0462 35.0192C36.9016 35.2222 36.7064 35.3831 36.4803 35.4858C35.8696 35.812 35.1867 35.9768 34.4956 35.9645H21.4086" fill="#083090" fill-opacity="0.4"/>
<path d="M21.4102 48.9734C21.4202 49.2023 21.3554 49.4282 21.2256 49.6163C21.0679 49.8425 20.8625 50.0307 20.6241 50.1674C20.3358 50.3354 20.0244 50.4596 19.7001 50.5359C18.978 50.7089 18.2257 50.7089 17.5035 50.5359C17.1795 50.4598 16.8685 50.3356 16.5807 50.1674C16.3418 50.031 16.1359 49.8428 15.978 49.6163C15.8742 49.4584 15.8148 49.2751 15.806 49.0859V50.9228C15.795 51.1518 15.86 51.378 15.9906 51.5657C16.1486 51.7913 16.354 51.979 16.5921 52.1156C16.8803 52.2843 17.1916 52.4089 17.5161 52.4853C18.2382 52.6583 18.9905 52.6583 19.7126 52.4853C20.0367 52.4089 20.3477 52.2843 20.6355 52.1156C20.8741 51.9793 21.0799 51.7915 21.2381 51.5657C21.3677 51.3775 21.4326 51.1517 21.4227 50.9228" fill="#083090" fill-opacity="0.4"/>
<path d="M37.9924 59.7697C37.3769 60.0852 36.6961 60.2496 36.0055 60.2496C35.3149 60.2496 34.6341 60.0852 34.0186 59.7697L27.4198 55.9169C27.1936 55.8148 26.9743 55.654 26.8296 55.4511C26.6849 55.2483 26.5961 55.0105 26.5721 54.7618C26.5721 54.7618 26.5847 56.2819 26.5847 56.7136C26.6083 56.9623 26.6969 57.2002 26.8414 57.4033C26.9859 57.6063 27.1811 57.7672 27.4072 57.8697C27.4072 57.8697 33.4167 61.4101 34.0322 61.7249C34.6478 62.0396 35.3283 62.2037 36.0186 62.2037C36.7089 62.2037 37.3894 62.0396 38.0049 61.7249C38.2313 61.6226 38.4268 61.4618 38.5715 61.2587C38.7161 61.0556 38.8049 60.8176 38.8287 60.5688C38.8287 60.1348 38.8161 59.5263 38.8161 58.617C38.7918 58.8653 38.7028 59.1026 38.5581 59.305C38.4135 59.5074 38.2183 59.6677 37.9924 59.7697Z" fill="#083090" fill-opacity="0.4"/>
<path d="M70.604 40.1158C70.5808 40.3646 70.4924 40.6028 70.3479 40.8059C70.2034 41.009 70.0079 41.1698 69.7815 41.2719C69.1657 41.5866 68.485 41.7507 67.7945 41.7507C67.1041 41.7507 66.4234 41.5866 65.8076 41.2719L45.965 29.6995C45.7432 29.5976 45.5305 29.4451 45.387 29.2466C45.2435 29.0481 45.1497 28.8262 45.1215 28.5823C45.1215 28.9267 45.1306 30.1436 45.1306 30.5133C45.154 30.7621 45.2425 31.0002 45.387 31.2033C45.5315 31.4064 45.9531 31.6694 45.9531 31.6694L65.819 43.2293C66.4347 43.5441 67.1155 43.7081 67.8059 43.7081C68.4964 43.7081 69.1771 43.5441 69.7928 43.2293C70.0191 43.1271 70.2145 42.9663 70.359 42.7632C70.5035 42.5601 70.592 42.322 70.6154 42.0732C70.6177 41.6392 70.604 40.1158 70.604 40.1158Z" fill="#083090" fill-opacity="0.4"/>
<path d="M59.1749 47.4227C58.5591 47.7375 57.8908 47.918 57.2003 47.918C56.5099 47.918 55.8292 47.754 55.2134 47.4392L45.9484 42.0187C45.7219 41.9167 45.5199 41.7805 45.3754 41.5774C45.2309 41.3742 45.1425 41.1361 45.1193 40.8872C45.1193 40.8872 45.1307 42.4084 45.1307 42.8389C45.1544 43.0878 45.2432 43.3258 45.3878 43.5289C45.5325 43.7319 45.9544 43.995 45.9544 43.995C45.9544 43.995 54.6102 49.0762 55.2259 49.3909C55.8417 49.7057 56.5224 49.8697 57.2129 49.8697C57.9033 49.8697 58.584 49.7057 59.1998 49.3909C59.4259 49.2885 59.6212 49.1276 59.7657 48.9246C59.9101 48.7215 59.9987 48.4835 60.0224 48.2348C60.0224 47.8009 60.0098 46.2831 60.0098 46.2831C59.9864 46.5319 59.8979 46.77 59.7534 46.9731C59.6089 47.1762 59.4012 47.3205 59.1749 47.4227Z" fill="#083090" fill-opacity="0.4"/>
<path d="M48.589 53.6044C47.9732 53.9192 47.2925 54.0833 46.6021 54.0833C45.9116 54.0833 45.2309 53.9192 44.6152 53.6044L30.0678 45.1087C29.8416 45.0063 29.6233 44.865 29.4789 44.6619C29.3344 44.4588 29.2458 44.2209 29.2222 43.9722C29.2222 43.9722 29.2347 45.4934 29.2347 45.9239C29.2586 46.1724 29.3472 46.4101 29.4917 46.613C29.6361 46.8158 29.8313 46.9765 30.0573 47.0788C30.0573 47.0788 44.0119 55.2448 44.6277 55.5596C45.2434 55.8744 45.9242 56.0384 46.6146 56.0384C47.3051 56.0384 47.9858 55.8744 48.6015 55.5596C48.8277 55.4572 49.0229 55.2963 49.1674 55.0932C49.3119 54.8902 49.4004 54.6522 49.4241 54.4035C49.4241 53.9695 49.4116 52.4518 49.4116 52.4518C49.3873 52.6999 49.2985 52.9371 49.1541 53.1395C49.0096 53.342 48.8147 53.5023 48.589 53.6044Z" fill="#083090" fill-opacity="0.4"/>
</g>
<g filter="url(#filter2_b_1145_488)">
<path d="M25.8998 21.8864C26.5154 22.2018 27.1962 22.3663 27.8868 22.3663C28.5773 22.3663 29.2582 22.2018 29.8737 21.8864L31.6886 20.8301V18.8692L29.862 19.898C29.2462 20.2127 28.5685 20.3826 27.8781 20.3826C27.1876 20.3826 26.5099 20.2249 25.8941 19.9101C25.668 19.8077 25.4855 19.6588 25.3411 19.4557C25.1966 19.2527 25.0873 19.025 25.0636 18.7762C25.0636 18.7762 25.0761 20.2974 25.0761 20.728C25.0993 20.9773 25.1878 21.2159 25.3325 21.4194C25.4772 21.623 25.673 21.7841 25.8998 21.8864Z" fill="url(#paint3_linear_1145_488)"/>
<path d="M21.4086 36.2382H34.5104C35.2016 36.2515 35.8848 36.0867 36.4951 35.7595C36.721 35.657 36.9161 35.4962 37.0608 35.2934C37.2054 35.0906 37.2944 34.853 37.3188 34.6045L37.3063 32.6528V20.8186L39.1439 21.892C39.7597 22.2068 40.4404 22.3708 41.1309 22.3708C41.8213 22.3708 42.502 22.2068 43.1178 21.892C43.3442 21.7897 43.5396 21.6289 43.6843 21.4258C43.829 21.2228 43.9177 20.9847 43.9415 20.7359C43.9415 20.3031 43.929 18.7842 43.929 18.7842C43.9052 19.033 43.7947 19.2562 43.65 19.4593C43.5053 19.6623 43.3067 19.8189 43.0803 19.9212C42.4648 20.2359 41.808 20.3831 41.1177 20.3831C40.4275 20.3831 39.7529 20.2314 39.1373 19.9167L37.304 18.8538V32.6459C37.2798 32.8946 37.1908 33.1325 37.0462 33.3355C36.9016 33.5385 36.7064 33.6994 36.4803 33.802C35.8696 34.1283 35.1867 34.2931 34.4956 34.2808H21.4086" fill="url(#paint4_linear_1145_488)"/>
<path d="M21.4102 47.2899C21.4202 47.5188 21.3554 47.7447 21.2256 47.9328C21.0679 48.159 20.8625 48.3472 20.6241 48.4839C20.3358 48.6519 20.0244 48.7761 19.7001 48.8524C18.978 49.0254 18.2257 49.0254 17.5035 48.8524C17.1795 48.7763 16.8685 48.6521 16.5807 48.4839C16.3418 48.3475 16.1359 48.1593 15.978 47.9328C15.8742 47.7749 15.8148 47.5916 15.806 47.4024V49.2393C15.795 49.4683 15.86 49.6945 15.9906 49.8823C16.1486 50.1078 16.354 50.2955 16.5921 50.4322C16.8803 50.6008 17.1916 50.7254 17.5161 50.8019C18.2382 50.9748 18.9905 50.9748 19.7126 50.8019C20.0367 50.7254 20.3477 50.6008 20.6355 50.4322C20.8741 50.2959 21.0799 50.1081 21.2381 49.8823C21.3677 49.694 21.4326 49.4682 21.4227 49.2393" fill="url(#paint5_linear_1145_488)"/>
<path d="M37.9925 58.086C37.377 58.4015 36.6962 58.5659 36.0056 58.5659C35.315 58.5659 34.6342 58.4015 34.0187 58.086L27.4199 54.2332C27.1937 54.131 26.9744 53.9703 26.8297 53.7674C26.6851 53.5646 26.5962 53.3268 26.5723 53.0781C26.5723 53.0781 26.5848 54.5982 26.5848 55.0298C26.6085 55.2785 26.697 55.5165 26.8415 55.7196C26.986 55.9226 27.1812 56.0835 27.4074 56.1859C27.4074 56.1859 33.4168 59.7264 34.0324 60.0411C34.6479 60.3559 35.3284 60.5199 36.0187 60.5199C36.709 60.5199 37.3895 60.3559 38.0051 60.0411C38.2314 59.9389 38.4269 59.7781 38.5716 59.575C38.7163 59.3719 38.805 59.1339 38.8288 58.885C38.8288 58.4511 38.8162 57.8426 38.8162 56.9333C38.7919 57.1816 38.7029 57.4189 38.5582 57.6213C38.4136 57.8237 38.2184 57.984 37.9925 58.086Z" fill="url(#paint6_linear_1145_488)"/>
<path d="M70.604 38.4323C70.5808 38.6811 70.4924 38.9193 70.3479 39.1224C70.2034 39.3256 70.0079 39.4864 69.7815 39.5884C69.1657 39.9032 68.485 40.0672 67.7945 40.0672C67.1041 40.0672 66.4234 39.9032 65.8076 39.5884L45.965 28.016C45.7432 27.9142 45.5305 27.7616 45.387 27.5631C45.2435 27.3646 45.1497 27.1427 45.1215 26.8988C45.1215 27.2432 45.1306 28.4602 45.1306 28.8299C45.154 29.0786 45.2425 29.3167 45.387 29.5198C45.5315 29.7229 45.9531 29.986 45.9531 29.986L65.819 41.5458C66.4347 41.8606 67.1155 42.0246 67.8059 42.0246C68.4964 42.0246 69.1771 41.8606 69.7928 41.5458C70.0191 41.4436 70.2145 41.2828 70.359 41.0797C70.5035 40.8766 70.592 40.6385 70.6154 40.3897C70.6177 39.9558 70.604 38.4323 70.604 38.4323Z" fill="url(#paint7_linear_1145_488)"/>
<path d="M59.1749 45.7393C58.5591 46.054 57.8908 46.2346 57.2003 46.2346C56.5099 46.2346 55.8292 46.0705 55.2134 45.7558L45.9484 40.3353C45.7219 40.2332 45.5199 40.097 45.3754 39.8939C45.2309 39.6908 45.1425 39.4526 45.1193 39.2037C45.1193 39.2037 45.1307 40.7249 45.1307 41.1554C45.1544 41.4043 45.2432 41.6423 45.3878 41.8454C45.5325 42.0485 45.9544 42.3116 45.9544 42.3116C45.9544 42.3116 54.6102 47.3927 55.2259 47.7075C55.8417 48.0222 56.5224 48.1863 57.2129 48.1863C57.9033 48.1863 58.584 48.0222 59.1998 47.7075C59.4259 47.6051 59.6212 47.4442 59.7657 47.2411C59.9101 47.038 59.9987 46.8001 60.0224 46.5514C60.0224 46.1174 60.0098 44.5996 60.0098 44.5996C59.9864 44.8484 59.8979 45.0865 59.7534 45.2896C59.6089 45.4927 59.4012 45.637 59.1749 45.7393Z" fill="url(#paint8_linear_1145_488)"/>
<path d="M48.589 51.9211C47.9732 52.2359 47.2925 52.3999 46.6021 52.3999C45.9116 52.3999 45.2309 52.2359 44.6152 51.9211L30.0678 43.4254C29.8416 43.323 29.6233 43.1816 29.4789 42.9786C29.3344 42.7755 29.2458 42.5375 29.2222 42.2888C29.2222 42.2888 29.2347 43.81 29.2347 44.2405C29.2586 44.489 29.3472 44.7268 29.4917 44.9296C29.6361 45.1324 29.8313 45.2932 30.0573 45.3955C30.0573 45.3955 44.0119 53.5615 44.6277 53.8763C45.2434 54.191 45.9242 54.3551 46.6146 54.3551C47.3051 54.3551 47.9858 54.191 48.6015 53.8763C48.8277 53.7738 49.0229 53.6129 49.1674 53.4099C49.3119 53.2068 49.4004 52.9689 49.4241 52.7202C49.4241 52.2862 49.4116 50.7684 49.4116 50.7684C49.3873 51.0165 49.2985 51.2538 49.1541 51.4562C49.0096 51.6586 48.8147 51.819 48.589 51.9211Z" fill="url(#paint9_linear_1145_488)"/>
</g>
<g filter="url(#filter3_bi_1145_488)">
<path d="M25.8861 19.932C25.66 19.8296 25.4647 19.6687 25.3203 19.4656C25.1758 19.2626 25.0872 19.0246 25.0636 18.7759C25.0874 18.5273 25.1761 18.2894 25.3205 18.0864C25.465 17.8834 25.6601 17.7224 25.8861 17.6198L32.5088 13.7669C33.1246 13.4521 33.8053 13.2881 34.4958 13.2881C35.1862 13.2881 35.8669 13.4521 36.4827 13.7669L43.1065 17.6198C43.3327 17.7222 43.5279 17.8831 43.6724 18.0862C43.8169 18.2892 43.9054 18.5272 43.9291 18.7759C43.9053 19.0247 43.8166 19.2628 43.6719 19.4659C43.5272 19.6689 43.3318 19.8298 43.1054 19.932C42.4898 20.2468 41.8093 20.4108 41.119 20.4108C40.4288 20.4108 39.7482 20.2468 39.1327 19.932L37.3041 18.8689V32.6457C37.2801 32.8945 37.1913 33.1324 37.0466 33.3354C36.902 33.5385 36.7066 33.6994 36.4804 33.8018C35.8697 34.1281 35.1869 34.2928 34.4958 34.2805H21.4087V47.2881C21.4197 47.5171 21.3547 47.7433 21.2241 47.9311C21.0663 48.1575 20.8604 48.3458 20.6215 48.4821C20.3337 48.6504 20.0227 48.7746 19.6986 48.8507C18.9767 49.0252 18.224 49.0252 17.5021 48.8507C17.178 48.7746 16.867 48.6504 16.5792 48.4821C16.3408 48.3455 16.1351 48.1578 15.9766 47.9322C15.847 47.7436 15.7821 47.5174 15.792 47.2881V32.648C15.8157 32.3994 15.9043 32.1617 16.0488 31.9588C16.1933 31.756 16.3885 31.5953 16.6146 31.493C17.2253 31.1657 17.9088 31.0009 18.6003 31.0143H31.6874V18.8689L29.8588 19.932C29.2431 20.2468 28.5624 20.4108 27.8719 20.4108C27.1815 20.4108 26.5019 20.2468 25.8861 19.932ZM27.3957 51.9217C28.0114 51.607 28.6922 51.4429 29.3826 51.4429C30.0731 51.4429 30.7538 51.607 31.3695 51.9217L37.9923 55.7747C38.2318 55.8567 38.4398 56.0122 38.5872 56.2195C38.7345 56.4267 38.8137 56.6752 38.8137 56.9302C38.8137 57.1851 38.7345 57.4337 38.5872 57.6409C38.4398 57.8482 38.2318 58.0037 37.9923 58.0857C37.3766 58.4008 36.6958 58.5651 36.0053 58.5651C35.3148 58.5651 34.634 58.4008 34.0184 58.0857L27.3885 54.2328C27.3885 54.2328 26.9469 53.9949 26.7991 53.7876C26.6513 53.5802 26.5718 53.3314 26.5718 53.0761C26.5718 52.8208 26.6513 52.572 26.7991 52.3647C26.9469 52.1574 27.1556 52.0032 27.3957 51.9217ZM34.0184 41.1299C33.4026 40.8151 32.7219 40.6511 32.0315 40.6511C31.341 40.6511 30.6603 40.8151 30.0445 41.1299C29.8046 41.2117 29.5961 41.3672 29.4485 41.5746C29.3008 41.7819 29.2214 42.0308 29.2214 42.286C29.2214 42.5413 29.3008 42.7901 29.4485 42.9975C29.5961 43.2049 30.0445 43.4421 30.0445 43.4421L44.615 51.9183C45.2307 52.2331 45.9114 52.3971 46.6019 52.3971C47.2923 52.3971 47.9731 52.2331 48.5888 51.9183C48.8284 51.8363 49.0364 51.6807 49.1837 51.4735C49.3311 51.2662 49.4103 51.0177 49.4103 50.7628C49.4103 50.5078 49.3311 50.2593 49.1837 50.052C49.0364 49.8448 48.8284 49.6892 48.5888 49.6072L34.0184 41.1299ZM45.94 38.0474C46.5473 37.7383 47.2364 37.5685 47.9269 37.5685C48.6173 37.5685 49.2981 37.7326 49.9138 38.0474L59.1854 43.4433C59.1854 43.4433 59.633 43.6808 59.7803 43.8881C59.9276 44.0953 60.0069 44.3439 60.0069 44.5988C60.0069 44.8537 59.9276 45.1023 59.7803 45.3095C59.633 45.5168 59.1854 45.7543 59.1854 45.7543C58.5696 46.0691 57.8889 46.2331 57.1984 46.2331C56.508 46.2331 55.8273 46.0691 55.2115 45.7543L45.94 40.3584C45.94 40.3584 45.4915 40.1211 45.3439 39.9138C45.1962 39.7064 45.1168 39.4576 45.1168 39.2023C45.1168 38.9471 45.1962 38.6982 45.3439 38.4909C45.4915 38.2835 45.7462 38.1476 45.94 38.0474ZM49.9138 25.7171C49.2981 25.4024 48.6173 25.2383 47.9269 25.2383C47.2364 25.2383 46.5557 25.4024 45.94 25.7171C45.7138 25.8195 45.5186 25.9804 45.3741 26.1835C45.2296 26.3865 45.1411 26.6245 45.1174 26.8732C45.1411 27.1219 45.2296 27.3599 45.3741 27.563C45.5186 27.766 45.94 28.0293 45.94 28.0293L65.8081 39.5904C66.4238 39.9051 67.1046 40.0692 67.795 40.0692C68.4855 40.0692 69.1662 39.9051 69.7819 39.5904C70.0168 39.4703 70.2295 39.3528 70.3769 39.1455C70.5242 38.9383 70.6034 38.6898 70.6034 38.4348C70.6034 38.1799 70.5242 37.9313 70.3769 37.7241C70.2295 37.5168 69.9963 37.3795 69.7819 37.2793L49.9138 25.7171Z" fill="url(#paint10_linear_1145_488)" fill-opacity="0.35"/>
<path d="M25.916 19.8736L25.916 19.8736L25.9132 19.8723C25.6976 19.7747 25.5115 19.6213 25.3737 19.4276C25.2371 19.2357 25.1529 19.011 25.1294 18.7759C25.1531 18.541 25.2374 18.3163 25.374 18.1244C25.5117 17.9308 25.6978 17.7773 25.9132 17.6795L25.9134 17.6798L25.9191 17.6765L32.5402 13.8245C33.1464 13.5149 33.8163 13.3536 34.4958 13.3536C35.1752 13.3536 35.8452 13.5149 36.4513 13.8245L43.0736 17.6765L43.0734 17.6768L43.0795 17.6795C43.2951 17.7771 43.4812 17.9305 43.619 18.1242C43.7556 18.3161 43.8398 18.5409 43.8632 18.7759C43.8397 19.011 43.7553 19.2358 43.6185 19.4278C43.4805 19.6215 43.2942 19.7748 43.0784 19.8723L43.0784 19.8722L43.0756 19.8736C42.4692 20.1837 41.7989 20.3452 41.119 20.3452C40.4398 20.3452 39.77 20.184 39.1641 19.8744L37.3371 18.8122L37.2386 18.755V18.8689V32.6425C37.2152 32.8787 37.1306 33.1046 36.9932 33.2974C36.8553 33.491 36.669 33.6444 36.4534 33.7421L36.4533 33.742L36.4495 33.744C35.8487 34.065 35.1768 34.2271 34.4969 34.215H34.4958H21.4087H21.3432V34.2805V47.2881H21.3431L21.3432 47.2913C21.3535 47.5059 21.2927 47.7177 21.1704 47.8936C21.0181 48.1121 20.8195 48.2937 20.589 48.4252L20.5884 48.4255C20.3062 48.5905 20.0013 48.7122 19.6836 48.7868L19.6832 48.7869C18.9714 48.959 18.2293 48.959 17.5175 48.7869L17.5171 48.7868C17.1994 48.7122 16.8945 48.5905 16.6123 48.4255L16.6118 48.4253C16.3819 48.2935 16.1834 48.1124 16.0304 47.8948C15.909 47.7179 15.8483 47.5059 15.8575 47.291H15.8575V47.2881V32.6512C15.8806 32.4151 15.965 32.1895 16.1022 31.9968C16.24 31.8034 16.4261 31.6502 16.6416 31.5528L16.6416 31.5529L16.6455 31.5508C17.2463 31.2288 17.9188 31.0667 18.5991 31.0798H18.6003H31.6874H31.753V31.0143V18.8689V18.755L31.6545 18.8122L29.8274 19.8744C29.2213 20.184 28.5514 20.3453 27.8719 20.3453C27.1919 20.3453 26.5225 20.1837 25.916 19.8736ZM27.4167 51.9838L27.417 51.9845L27.4255 51.9801C28.0321 51.6701 28.7026 51.5085 29.3826 51.5085C30.0621 51.5085 30.732 51.6698 31.3381 51.9793L37.9593 55.8313L37.9586 55.8324L37.971 55.8367C38.1975 55.9142 38.3943 56.0613 38.5337 56.2574C38.6732 56.4536 38.7482 56.6888 38.7482 56.9302C38.7482 57.1715 38.6732 57.4068 38.5337 57.6029C38.3943 57.799 38.1975 57.9461 37.971 58.0237L37.9708 58.023L37.9624 58.0274C37.356 58.3377 36.6854 58.4995 36.0053 58.4995C35.3258 58.4995 34.6558 58.338 34.0498 58.0281L27.4214 54.1761L27.4214 54.1761L27.4196 54.1751L27.4196 54.1751L27.4194 54.175L27.4185 54.1745L27.415 54.1726L27.4012 54.165C27.3892 54.1582 27.3717 54.1483 27.3503 54.1358C27.3073 54.1107 27.2486 54.0751 27.1854 54.0333C27.0564 53.9478 26.9186 53.8422 26.8525 53.7495C26.7126 53.5533 26.6373 53.3178 26.6373 53.0761C26.6373 52.8344 26.7126 52.5989 26.8525 52.4027C26.9923 52.2067 27.1896 52.0609 27.4167 51.9838ZM30.0657 41.192L30.0659 41.1926L30.0744 41.1883C30.6809 40.8782 31.3514 40.7167 32.0315 40.7167C32.7109 40.7167 33.3809 40.8779 33.987 41.1875L48.5558 49.6639L48.5552 49.665L48.5676 49.6693C48.7941 49.7468 48.9909 49.8939 49.1303 50.09C49.2697 50.2861 49.3447 50.5214 49.3447 50.7628C49.3447 51.0041 49.2697 51.2394 49.1303 51.4355C48.9909 51.6316 48.7941 51.7787 48.5676 51.8563L48.5674 51.8556L48.559 51.8599C47.9524 52.17 47.2819 52.3315 46.6019 52.3315C45.9224 52.3315 45.2525 52.1702 44.6463 51.8607L30.0775 43.3855L30.0775 43.3854L30.0752 43.3842L30.0752 43.3842L30.075 43.3841L30.0741 43.3836L30.0706 43.3817L30.0565 43.3741C30.0531 43.3721 30.0491 43.37 30.0448 43.3676C30.0339 43.3615 30.0204 43.3539 30.0048 43.345C29.9613 43.3199 29.9017 43.2844 29.8377 43.2427C29.7069 43.1572 29.5677 43.0519 29.5019 42.9594C29.3621 42.7632 29.2869 42.5277 29.2869 42.286C29.2869 42.0444 29.3621 41.8088 29.5019 41.6126C29.6416 41.4163 29.8388 41.2693 30.0657 41.192ZM59.1557 45.6958L59.1555 45.6959C59.1554 45.696 59.1552 45.6961 59.155 45.6962C58.5486 46.0061 57.8783 46.1676 57.1984 46.1676C56.519 46.1676 55.8491 46.0063 55.2429 45.6968L45.9729 40.3018L45.973 40.3017L45.9706 40.3005L45.9706 40.3004L45.9704 40.3003L45.9695 40.2999L45.966 40.298L45.952 40.2903C45.9397 40.2836 45.922 40.2738 45.9002 40.2613C45.8567 40.2362 45.7971 40.2007 45.7331 40.159C45.6023 40.0735 45.4631 39.9682 45.3973 39.8757C45.2575 39.6795 45.1823 39.444 45.1823 39.2023C45.1823 38.9607 45.2575 38.7251 45.3973 38.5289C45.5342 38.3365 45.7739 38.2071 45.9699 38.1057C46.5682 37.8013 47.2471 37.6341 47.9269 37.6341C48.6064 37.6341 49.2763 37.7954 49.8824 38.1049L59.1524 43.4999L59.1524 43.5L59.1546 43.5012L59.1547 43.5012L59.1549 43.5013L59.1557 43.5017L59.1593 43.5037L59.1733 43.5113C59.1855 43.518 59.2032 43.5279 59.2249 43.5404C59.2684 43.5655 59.3278 43.601 59.3917 43.6428C59.5223 43.7283 59.6612 43.8336 59.7269 43.9261C59.8663 44.1222 59.9413 44.3574 59.9413 44.5988C59.9413 44.8402 59.8663 45.0754 59.7269 45.2715C59.6612 45.364 59.5223 45.4693 59.3917 45.5548C59.3278 45.5966 59.2684 45.6321 59.2249 45.6572C59.2032 45.6697 59.1855 45.6796 59.1733 45.6863L59.1593 45.6939L59.1557 45.6958ZM45.967 25.7768L45.967 25.7769L45.9698 25.7755C46.5763 25.4654 47.2468 25.3039 47.9269 25.3039C48.6063 25.3039 49.2763 25.4652 49.8824 25.7747L69.749 37.336L69.7488 37.3362L69.7542 37.3387C69.966 37.4378 70.1863 37.5692 70.3234 37.7621C70.4629 37.9582 70.5379 38.1935 70.5379 38.4348C70.5379 38.6762 70.4629 38.9114 70.3234 39.1076C70.1865 39.3002 69.9877 39.4116 69.7521 39.532C69.1456 39.842 68.4751 40.0036 67.795 40.0036C67.1156 40.0036 66.4456 39.8423 65.8395 39.5328L45.9747 27.9737L45.9747 27.9737L45.9745 27.9736L45.9737 27.9731L45.9703 27.9709L45.957 27.9625C45.9455 27.9551 45.9288 27.9442 45.9082 27.9305C45.8671 27.903 45.8108 27.8644 45.7502 27.8196C45.6265 27.7282 45.493 27.617 45.4275 27.5249C45.2909 27.333 45.2067 27.1082 45.1833 26.8732C45.2067 26.6382 45.2909 26.4134 45.4275 26.2215C45.5653 26.0278 45.7514 25.8744 45.967 25.7768Z" stroke="url(#paint11_linear_1145_488)" stroke-width="0.131111"/>
</g>
<defs>
<filter id="filter0_di_1145_488" x="0.581774" y="23.0865" width="85.3107" height="54.8118" filterUnits="userSpaceOnUse" color-interpolation-filters="sRGB">
<feFlood flood-opacity="0" result="BackgroundImageFix"/>
<feColorMatrix in="SourceAlpha" type="matrix" values="0 0 0 0 0 0 0 0 0 0 0 0 0 0 0 0 0 0 127 0" result="hardAlpha"/>
<feOffset dy="5.24444"/>
<feGaussianBlur stdDeviation="3.27778"/>
<feComposite in2="hardAlpha" operator="out"/>
<feColorMatrix type="matrix" values="0 0 0 0 0.0980392 0 0 0 0 0.211765 0 0 0 0 0.482353 0 0 0 0.5 0"/>
<feBlend mode="normal" in2="BackgroundImageFix" result="effect1_dropShadow_1145_488"/>
<feBlend mode="normal" in="SourceGraphic" in2="effect1_dropShadow_1145_488" result="shape"/>
<feColorMatrix in="SourceAlpha" type="matrix" values="0 0 0 0 0 0 0 0 0 0 0 0 0 0 0 0 0 0 127 0" result="hardAlpha"/>
<feOffset/>
<feGaussianBlur stdDeviation="2.62222"/>
<feComposite in2="hardAlpha" operator="arithmetic" k2="-1" k3="1"/>
<feColorMatrix type="matrix" values="0 0 0 0 1 0 0 0 0 1 0 0 0 0 1 0 0 0 0.25 0"/>
<feBlend mode="normal" in2="shape" result="effect2_innerShadow_1145_488"/>
</filter>
<filter id="filter1_f_1145_488" x="13.1826" y="21.583" width="60.0554" height="43.2429" filterUnits="userSpaceOnUse" color-interpolation-filters="sRGB">
<feFlood flood-opacity="0" result="BackgroundImageFix"/>
<feBlend mode="normal" in="SourceGraphic" in2="BackgroundImageFix" result="shape"/>
<feGaussianBlur stdDeviation="1.31111" result="effect1_foregroundBlur_1145_488"/>
</filter>
<filter id="filter2_b_1145_488" x="14.4937" y="17.4651" width="57.4331" height="44.3659" filterUnits="userSpaceOnUse" color-interpolation-filters="sRGB">
<feFlood flood-opacity="0" result="BackgroundImageFix"/>
<feGaussianBlur in="BackgroundImageFix" stdDeviation="0.655556"/>
<feComposite in2="SourceAlpha" operator="in" result="effect1_backgroundBlur_1145_488"/>
<feBlend mode="normal" in="SourceGraphic" in2="effect1_backgroundBlur_1145_488" result="shape"/>
</filter>
<filter id="filter3_bi_1145_488" x="11.8577" y="9.35475" width="62.679" height="53.1436" filterUnits="userSpaceOnUse" color-interpolation-filters="sRGB">
<feFlood flood-opacity="0" result="BackgroundImageFix"/>
<feGaussianBlur in="BackgroundImageFix" stdDeviation="1.96667"/>
<feComposite in2="SourceAlpha" operator="in" result="effect1_backgroundBlur_1145_488"/>
<feBlend mode="normal" in="SourceGraphic" in2="effect1_backgroundBlur_1145_488" result="shape"/>
<feColorMatrix in="SourceAlpha" type="matrix" values="0 0 0 0 0 0 0 0 0 0 0 0 0 0 0 0 0 0 127 0" result="hardAlpha"/>
<feOffset/>
<feGaussianBlur stdDeviation="0.983333"/>
<feComposite in2="hardAlpha" operator="arithmetic" k2="-1" k3="1"/>
<feColorMatrix type="matrix" values="0 0 0 0 1 0 0 0 0 1 0 0 0 0 1 0 0 0 0.5 0"/>
<feBlend mode="normal" in2="shape" result="effect2_innerShadow_1145_488"/>
</filter>
<linearGradient id="paint0_linear_1145_488" x1="75.8984" y1="32.3716" x2="9.21087" y2="53.828" gradientUnits="userSpaceOnUse">
<stop stop-color="#00298D"/>
<stop offset="0.189268" stop-color="#2349A7"/>
<stop offset="0.646435" stop-color="#3155AD"/>
<stop offset="1" stop-color="#032C91"/>
</linearGradient>
<radialGradient id="paint1_radial_1145_488" cx="0" cy="0" r="1" gradientUnits="userSpaceOnUse" gradientTransform="translate(43.2371 45.2479) rotate(90) scale(28.6214 49.5543)">
<stop offset="0.0520833" stop-color="#062E8D"/>
<stop offset="1" stop-color="#2968FE"/>
</radialGradient>
<linearGradient id="paint2_linear_1145_488" x1="31.7221" y1="23.199" x2="51.3231" y2="64.8863" gradientUnits="userSpaceOnUse">
<stop stop-color="white" stop-opacity="0"/>
<stop offset="1" stop-color="white" stop-opacity="0.43"/>
</linearGradient>
<linearGradient id="paint3_linear_1145_488" x1="31.6952" y1="24.008" x2="26.702" y2="16.6928" gradientUnits="userSpaceOnUse">
<stop stop-color="#E9F7FF"/>
<stop offset="0.579246" stop-color="#D7F0FF" stop-opacity="0.57"/>
<stop offset="0.956471" stop-color="#BDE7FF" stop-opacity="0"/>
</linearGradient>
<linearGradient id="paint4_linear_1145_488" x1="43.9641" y1="44.2212" x2="17.903" y2="17.5122" gradientUnits="userSpaceOnUse">
<stop stop-color="#E9F7FF"/>
<stop offset="0.579246" stop-color="#D7F0FF" stop-opacity="0.57"/>
<stop offset="0.956471" stop-color="#BDE7FF" stop-opacity="0"/>
</linearGradient>
<linearGradient id="paint5_linear_1145_488" x1="21.4293" y1="52.597" x2="16.1005" y2="46.0695" gradientUnits="userSpaceOnUse">
<stop stop-color="#E9F7FF"/>
<stop offset="0.579246" stop-color="#D7F0FF" stop-opacity="0.57"/>
<stop offset="0.956471" stop-color="#BDE7FF" stop-opacity="0"/>
</linearGradient>
<linearGradient id="paint6_linear_1145_488" x1="38.8411" y1="63.9231" x2="28.1145" y2="49.8979" gradientUnits="userSpaceOnUse">
<stop stop-color="#E9F7FF"/>
<stop offset="0.579246" stop-color="#D7F0FF" stop-opacity="0.57"/>
<stop offset="0.956471" stop-color="#BDE7FF" stop-opacity="0"/>
</linearGradient>
<linearGradient id="paint7_linear_1145_488" x1="70.6412" y1="48.9418" x2="48.976" y2="19.9518" gradientUnits="userSpaceOnUse">
<stop stop-color="#E9F7FF"/>
<stop offset="0.579246" stop-color="#D7F0FF" stop-opacity="0.57"/>
<stop offset="0.956471" stop-color="#BDE7FF" stop-opacity="0"/>
</linearGradient>
<linearGradient id="paint8_linear_1145_488" x1="60.0373" y1="52.2941" x2="47.1152" y2="35.2735" gradientUnits="userSpaceOnUse">
<stop stop-color="#E9F7FF"/>
<stop offset="0.579246" stop-color="#D7F0FF" stop-opacity="0.57"/>
<stop offset="0.956471" stop-color="#BDE7FF" stop-opacity="0"/>
</linearGradient>
<linearGradient id="paint9_linear_1145_488" x1="49.4444" y1="59.873" x2="32.1291" y2="36.8579" gradientUnits="userSpaceOnUse">
<stop stop-color="#E9F7FF"/>
<stop offset="0.579246" stop-color="#D7F0FF" stop-opacity="0.57"/>
<stop offset="0.956471" stop-color="#BDE7FF" stop-opacity="0"/>
</linearGradient>
<linearGradient id="paint10_linear_1145_488" x1="15.791" y1="9.37807" x2="78.7776" y2="43.4572" gradientUnits="userSpaceOnUse">
<stop offset="0.0529546" stop-color="#3FA6E0"/>
<stop offset="0.461273" stop-color="#79CFFF"/>
<stop offset="1" stop-color="#79CFFF"/>
</linearGradient>
<linearGradient id="paint11_linear_1145_488" x1="69.1693" y1="65.1785" x2="10.3593" y2="36.5496" gradientUnits="userSpaceOnUse">
<stop stop-color="#E9F7FF"/>
<stop offset="0.923987" stop-color="#BDE7FF" stop-opacity="0"/>
</linearGradient>
</defs>
</svg>
