<svg width="35" height="37" viewBox="0 0 35 37" fill="none" xmlns="http://www.w3.org/2000/svg">
<path d="M25.4989 2.1875C25.4989 1.73995 25.6767 1.31072 25.9931 0.994257C26.3096 0.677789 26.7388 0.5 27.1864 0.5H32.8114C33.2589 0.5 33.6882 0.677789 34.0046 0.994257C34.3211 1.31072 34.4989 1.73995 34.4989 2.1875V7.8125C34.4989 8.26005 34.3211 8.68928 34.0046 9.00574C33.6882 9.32221 33.2589 9.5 32.8114 9.5C32.3638 9.5 31.9346 9.32221 31.6181 9.00574C31.3017 8.68928 31.1239 8.26005 31.1239 7.8125V6.26L21.0664 16.3175C20.75 16.6335 20.3211 16.811 19.8739 16.811C19.4267 16.811 18.9978 16.6335 18.6814 16.3175L13.1239 10.76L3.62888 20.255C3.47439 20.4208 3.28809 20.5538 3.08109 20.646C2.87409 20.7382 2.65064 20.7878 2.42406 20.7918C2.19748 20.7958 1.97241 20.7541 1.76229 20.6693C1.55216 20.5844 1.36129 20.4581 1.20104 20.2978C1.0408 20.1376 0.914477 19.9467 0.829605 19.7366C0.744732 19.5265 0.703052 19.3014 0.70705 19.0748C0.711047 18.8482 0.760642 18.6248 0.852874 18.4178C0.945106 18.2108 1.07809 18.0245 1.24388 17.87L11.9314 7.1825C12.2478 6.86649 12.6767 6.68898 13.1239 6.68898C13.5711 6.68898 14 6.86649 14.3164 7.1825L19.8739 12.74L28.7389 3.875H27.1864C26.7388 3.875 26.3096 3.69721 25.9931 3.38074C25.6767 3.06428 25.4989 2.63505 25.4989 2.1875ZM2.43638 27.5C2.88393 27.5 3.31316 27.6778 3.62962 27.9943C3.94609 28.3107 4.12388 28.7399 4.12388 29.1875V34.8125C4.12388 35.2601 3.94609 35.6893 3.62962 36.0057C3.31316 36.3222 2.88393 36.5 2.43638 36.5C1.98883 36.5 1.55961 36.3222 1.24314 36.0057C0.92667 35.6893 0.748881 35.2601 0.748881 34.8125V29.1875C0.748881 28.7399 0.92667 28.3107 1.24314 27.9943C1.55961 27.6778 1.98883 27.5 2.43638 27.5ZM13.1239 22.4375C13.1239 21.9899 12.9461 21.5607 12.6296 21.2443C12.3132 20.9278 11.8839 20.75 11.4364 20.75C10.9888 20.75 10.5596 20.9278 10.2431 21.2443C9.92667 21.5607 9.74888 21.9899 9.74888 22.4375V34.8125C9.74888 35.2601 9.92667 35.6893 10.2431 36.0057C10.5596 36.3222 10.9888 36.5 11.4364 36.5C11.8839 36.5 12.3132 36.3222 12.6296 36.0057C12.9461 35.6893 13.1239 35.2601 13.1239 34.8125V22.4375ZM20.4364 25.25C20.8839 25.25 21.3132 25.4278 21.6296 25.7443C21.9461 26.0607 22.1239 26.4899 22.1239 26.9375V34.8125C22.1239 35.2601 21.9461 35.6893 21.6296 36.0057C21.3132 36.3222 20.8839 36.5 20.4364 36.5C19.9888 36.5 19.5596 36.3222 19.2431 36.0057C18.9267 35.6893 18.7489 35.2601 18.7489 34.8125V26.9375C18.7489 26.4899 18.9267 26.0607 19.2431 25.7443C19.5596 25.4278 19.9888 25.25 20.4364 25.25ZM31.1239 17.9375C31.1239 17.4899 30.9461 17.0607 30.6296 16.7443C30.3132 16.4278 29.8839 16.25 29.4364 16.25C28.9888 16.25 28.5596 16.4278 28.2431 16.7443C27.9267 17.0607 27.7489 17.4899 27.7489 17.9375V34.8125C27.7489 35.2601 27.9267 35.6893 28.2431 36.0057C28.5596 36.3222 28.9888 36.5 29.4364 36.5C29.8839 36.5 30.3132 36.3222 30.6296 36.0057C30.9461 35.6893 31.1239 35.2601 31.1239 34.8125V17.9375Z" fill="#185CFF"/>
</svg>
