<svg width="25" height="25" viewBox="0 0 25 25" fill="none" xmlns="http://www.w3.org/2000/svg">
<path d="M10.2846 9.80978H8.02787V11.6133H10.1446C10.5109 11.6133 10.8335 11.4914 10.8335 10.65C10.8335 9.80978 10.2846 9.80978 10.2846 9.80978Z" fill="#F1F6FA"/>
<path d="M8.02787 15.0184H10.1702C10.4915 15.0115 11.1023 14.9134 11.1023 13.9682C11.1023 12.8473 10.2846 12.8586 10.2846 12.8586H8.02787V15.0184Z" fill="#F1F6FA"/>
<path d="M14.6993 12.8586H17.2461C17.2461 12.8586 17.2611 11.6133 16.0633 11.6133C14.8656 11.6133 14.6993 12.8586 14.6993 12.8586Z" fill="#F1F6FA"/>
<path fill-rule="evenodd" clip-rule="evenodd" d="M12.5 25C19.4036 25 25 19.4036 25 12.5C25 5.59644 19.4036 0 12.5 0C5.59644 0 0 5.59644 0 12.5C0 19.4036 5.59644 25 12.5 25ZM12.4788 10.5256C12.4788 11.9709 11.2961 12.0628 11.2961 12.0628C12.824 12.0628 12.7513 13.9894 12.7483 14.067L12.7482 14.0694C12.7482 16.5356 10.2846 16.4549 10.2846 16.4549H6.25V8.37448H10.2846C11.5111 8.37448 12.4788 9.07838 12.4788 10.5256ZM13.0527 13.5343C13.0527 13.5343 13.0502 10.4293 16.0327 10.4293C19.1715 10.4293 18.7283 13.9375 18.7283 13.9375H14.713C14.713 15.4391 16.0783 15.3441 16.0783 15.3441C17.3661 15.3441 17.3211 14.4745 17.3211 14.4745H18.6851C18.6851 16.7819 16.0327 16.6231 16.0327 16.6231C12.8489 16.6231 13.0527 13.5343 13.0527 13.5343ZM14.3642 8.84896H17.563V9.84542H14.3642V8.84896Z" fill="#F1F6FA"/>
</svg>
