<svg width="35" height="35" viewBox="0 0 35 35" fill="none" xmlns="http://www.w3.org/2000/svg">
<path d="M16.0938 27.3438V28.75C16.0938 29.123 15.9456 29.4806 15.6819 29.7444C15.4181 30.0081 15.0605 30.1562 14.6875 30.1562H11.875V31.5625C11.875 32.3084 11.5787 33.0238 11.0512 33.5512C10.5238 34.0787 9.80842 34.375 9.0625 34.375H3.4375C2.69158 34.375 1.97621 34.0787 1.44876 33.5512C0.921316 33.0238 0.625 32.3084 0.625 31.5625V27.9259C0.625159 27.1801 0.92158 26.4648 1.44906 25.9375L12.3334 15.0531C11.666 12.7869 11.729 10.3681 12.5134 8.1397C13.2978 5.91128 14.7638 3.98635 16.7036 2.63784C18.6433 1.28933 20.9584 0.585694 23.3204 0.626695C25.6825 0.667697 27.9718 1.45126 29.8635 2.86627C31.7553 4.28129 33.1536 6.25594 33.8602 8.51024C34.5668 10.7645 34.5458 13.1841 33.8002 15.4257C33.0545 17.6674 31.6221 19.6175 29.706 20.9994C27.7899 22.3814 25.4874 23.125 23.125 23.125H20.3097V25.9375C20.3097 26.3105 20.1615 26.6681 19.8978 26.9319C19.6341 27.1956 19.2764 27.3438 18.9034 27.3438H16.0909H16.0938ZM25.9375 11.875C26.6834 11.875 27.3988 11.5787 27.9262 11.0512C28.4537 10.5238 28.75 9.80842 28.75 9.0625C28.75 8.31658 28.4537 7.60121 27.9262 7.07376C27.3988 6.54632 26.6834 6.25 25.9375 6.25C25.1916 6.25 24.4762 6.54632 23.9488 7.07376C23.4213 7.60121 23.125 8.31658 23.125 9.0625C23.125 9.80842 23.4213 10.5238 23.9488 11.0512C24.4762 11.5787 25.1916 11.875 25.9375 11.875Z" fill="#185CFF"/>
</svg>
