<svg width="16" height="14" viewBox="0 0 16 14" fill="current" xmlns="http://www.w3.org/2000/svg">
<path d="M3 0.75C2.33696 0.75 1.70107 1.01339 1.23223 1.48223C0.763392 1.95107 0.5 2.58696 0.5 3.25V3.50125L8 7.54L15.5 3.5025V3.25C15.5 2.58696 15.2366 1.95107 14.7678 1.48223C14.2989 1.01339 13.663 0.75 13 0.75H3ZM15.5 4.92125L8.29625 8.8C8.2052 8.84901 8.10341 8.87467 8 8.87467C7.89659 8.87467 7.7948 8.84901 7.70375 8.8L0.5 4.92125V10.75C0.5 11.413 0.763392 12.0489 1.23223 12.5178C1.70107 12.9866 2.33696 13.25 3 13.25H13C13.663 13.25 14.2989 12.9866 14.7678 12.5178C15.2366 12.0489 15.5 11.413 15.5 10.75V4.92125Z" fill="#292D33"/>
</svg>
