<svg width="37" height="37" viewBox="0 0 37 37" fill="none" xmlns="http://www.w3.org/2000/svg">
<path d="M9.79177 2.28421C11.3262 1.12212 13.1994 0.495342 15.1243 0.499964C15.6643 0.499964 16.094 0.781214 16.3438 0.974714C16.6228 1.19521 16.8838 1.47646 17.1178 1.75771C17.2837 1.95923 17.3744 2.21218 17.3743 2.47321V10.625H14.933C14.6676 9.87435 14.1454 9.24172 13.4587 8.83888C12.772 8.43604 11.965 8.28894 11.1803 8.42357C10.3956 8.5582 9.68381 8.9659 9.17065 9.5746C8.65749 10.1833 8.37604 10.9538 8.37604 11.75C8.37604 12.5461 8.65749 13.3166 9.17065 13.9253C9.68381 14.534 10.3956 14.9417 11.1803 15.0764C11.965 15.211 12.772 15.0639 13.4587 14.661C14.1454 14.2582 14.6676 13.6256 14.933 12.875H17.3743V34.0587C17.3744 34.2253 17.3375 34.3898 17.2663 34.5404C17.1951 34.691 17.0913 34.8239 16.9625 34.9295C15.923 35.78 14.5325 36.5 12.8743 36.5C10.2058 36.5 8.21902 35.1545 6.93427 33.5457C6.01123 32.3995 5.37901 31.0471 5.09152 29.6037C4.21735 29.3706 3.40683 28.9438 2.72002 28.355C1.47802 27.2907 0.499268 25.565 0.499268 23C0.499268 21.7467 0.582517 20.615 0.769267 19.625H7.81177C9.24277 19.625 10.4218 20.6937 10.6018 22.0752C9.85352 22.346 9.22502 22.8725 8.82723 23.5616C8.42945 24.2508 8.28797 25.0584 8.42777 25.8417C8.56757 26.6251 8.97966 27.3339 9.59129 27.8429C10.2029 28.3519 10.9747 28.6285 11.7704 28.6237C12.5662 28.619 13.3346 28.3332 13.9401 27.8169C14.5456 27.3006 14.9492 26.587 15.0796 25.802C15.2101 25.017 15.0589 24.2112 14.6529 23.5268C14.2469 22.8425 13.6122 22.3235 12.8608 22.0617C12.7659 20.7875 12.1928 19.5964 11.2564 18.7271C10.3199 17.8579 9.08946 17.3748 7.81177 17.375H1.49152C1.83577 16.7045 2.29702 16.1375 2.89777 15.7347C3.04973 15.6341 3.2092 15.5454 3.37477 15.4692C2.73577 13.5972 2.90227 11.4057 3.51877 9.68446C3.91252 8.57746 4.53802 7.53121 5.39752 6.83371C5.96452 6.37246 6.63952 6.06871 7.37752 6.01021C7.70152 4.47346 8.61277 3.20221 9.79402 2.28421H9.79177ZM19.6243 28.625H21.3118C22.6544 28.625 23.9421 28.0916 24.8915 27.1422C25.8409 26.1928 26.3743 24.9051 26.3743 23.5625V19.4337C27.1249 19.1683 27.7575 18.6461 28.1603 17.9594C28.5632 17.2727 28.7103 16.4657 28.5757 15.681C28.441 14.8963 28.0333 14.1845 27.4246 13.6713C26.8159 13.1582 26.0454 12.8767 25.2493 12.8767C24.4531 12.8767 23.6826 13.1582 23.0739 13.6713C22.4652 14.1845 22.0575 14.8963 21.9229 15.681C21.7882 16.4657 21.9353 17.2727 22.3382 17.9594C22.741 18.6461 23.3736 19.1683 24.1243 19.4337V23.5625C24.1243 25.115 22.8643 26.375 21.3118 26.375H19.6243V2.47321C19.6242 2.21218 19.7148 1.95923 19.8808 1.75771C20.1125 1.47646 20.3758 1.19521 20.6548 0.974714C20.9023 0.781214 21.332 0.499964 21.8743 0.499964C23.7991 0.495342 25.6723 1.12212 27.2068 2.28421C28.388 3.20221 29.2993 4.47346 29.621 6.01021C30.359 6.06646 31.034 6.37246 31.601 6.83371C32.4605 7.53121 33.086 8.57746 33.4798 9.68446C34.0963 11.4057 34.2628 13.5995 33.6238 15.467C33.7858 15.5435 33.9455 15.6335 34.1008 15.737C34.7195 16.1487 35.1898 16.7382 35.5363 17.4335C36.218 18.7947 36.4993 20.6937 36.4993 23C36.4993 25.5672 35.5205 27.2907 34.2785 28.355C33.5917 28.9438 32.7812 29.3706 31.907 29.6037C31.682 30.8592 31.052 32.3127 30.0643 33.5457C28.7818 35.1545 26.7928 36.5 24.1243 36.5C22.4683 36.5 21.0755 35.78 20.0383 34.9295C19.909 34.8241 19.8049 34.6913 19.7333 34.5407C19.6617 34.3901 19.6244 34.2255 19.6243 34.0587V28.625ZM11.7493 10.625C11.4509 10.625 11.1648 10.7435 10.9538 10.9545C10.7428 11.1654 10.6243 11.4516 10.6243 11.75C10.6243 12.0483 10.7428 12.3345 10.9538 12.5455C11.1648 12.7564 11.4509 12.875 11.7493 12.875C12.0476 12.875 12.3338 12.7564 12.5448 12.5455C12.7557 12.3345 12.8743 12.0483 12.8743 11.75C12.8743 11.4516 12.7557 11.1654 12.5448 10.9545C12.3338 10.7435 12.0476 10.625 11.7493 10.625ZM11.7493 24.125C11.4509 24.125 11.1648 24.2435 10.9538 24.4545C10.7428 24.6654 10.6243 24.9516 10.6243 25.25C10.6243 25.5483 10.7428 25.8345 10.9538 26.0455C11.1648 26.2564 11.4509 26.375 11.7493 26.375C12.0476 26.375 12.3338 26.2564 12.5448 26.0455C12.7557 25.8345 12.8743 25.5483 12.8743 25.25C12.8743 24.9516 12.7557 24.6654 12.5448 24.4545C12.3338 24.2435 12.0476 24.125 11.7493 24.125ZM25.2493 17.375C25.5476 17.375 25.8338 17.2564 26.0448 17.0455C26.2557 16.8345 26.3743 16.5483 26.3743 16.25C26.3743 15.9516 26.2557 15.6654 26.0448 15.4545C25.8338 15.2435 25.5476 15.125 25.2493 15.125C24.9509 15.125 24.6647 15.2435 24.4538 15.4545C24.2428 15.6654 24.1243 15.9516 24.1243 16.25C24.1243 16.5483 24.2428 16.8345 24.4538 17.0455C24.6647 17.2564 24.9509 17.375 25.2493 17.375Z" fill="#185CFF"/>
</svg>
