<svg width="14" height="18" viewBox="0 0 14 18" fill="current" xmlns="http://www.w3.org/2000/svg">
<path d="M5.44421 7.77998L6.78671 6.54998C7.15379 6.21301 7.4118 5.77402 7.52762 5.28937C7.64343 4.80472 7.61178 4.29651 7.43671 3.82998L6.86421 2.30123C6.65032 1.7305 6.22689 1.26279 5.68018 0.993383C5.13346 0.723975 4.5046 0.673138 3.92171 0.85123C1.77671 1.50748 0.127961 3.50123 0.635461 5.86873C0.969211 7.42623 1.60796 9.38123 2.81796 11.4612C4.03046 13.5462 5.41546 15.0862 6.60296 16.1687C8.39546 17.8 10.958 17.3925 12.6067 15.855C13.0487 15.4429 13.3168 14.8778 13.3566 14.2748C13.3963 13.6719 13.2046 13.0765 12.8205 12.61L11.7705 11.335C11.4538 10.9494 11.029 10.6674 10.5507 10.5253C10.0724 10.3832 9.56256 10.3874 9.08671 10.5375L7.35171 11.0837C6.90365 10.6213 6.511 10.1083 6.18171 9.55498C5.86388 8.99543 5.61618 8.39885 5.44421 7.77873V7.77998Z" fill="#292D33"/>
</svg>
